<?xml version="1.0" encoding="UTF-8"?>
<!DOCTYPE svg PUBLIC "-//W3C//DTD SVG 1.1//EN" "http://www.w3.org/Graphics/SVG/1.1/DTD/svg11.dtd">
<svg xmlns="http://www.w3.org/2000/svg" version="1.1" width="70px" height="72px" style="shape-rendering:geometricPrecision; text-rendering:geometricPrecision; image-rendering:optimizeQuality; fill-rule:evenodd; clip-rule:evenodd" xmlns:xlink="http://www.w3.org/1999/xlink">
<g><path style="opacity:1" fill="#fefefe" d="M -0.5,-0.5 C 22.8333,-0.5 46.1667,-0.5 69.5,-0.5C 69.5,23.5 69.5,47.5 69.5,71.5C 46.1667,71.5 22.8333,71.5 -0.5,71.5C -0.5,47.5 -0.5,23.5 -0.5,-0.5 Z"/></g>
<g><path style="opacity:1" fill="#f7f7f7" d="M 53.5,32.5 C 53.6664,41.1731 53.4998,49.8397 53,58.5C 52.5,59 52,59.5 51.5,60C 39.8333,60.6667 28.1667,60.6667 16.5,60C 16,59.5 15.5,59 15,58.5C 14.5002,49.5062 14.3336,40.5062 14.5,31.5C 20.9521,27.0958 27.2854,22.4292 33.5,17.5C 40.1851,22.5244 46.8518,27.5244 53.5,32.5 Z"/></g>
<g><path style="opacity:1" fill="#5d5f65" d="M 54.5,58.5 C 54.8324,49.0803 54.499,40.4136 53.5,32.5C 46.8518,27.5244 40.1851,22.5244 33.5,17.5C 27.2854,22.4292 20.9521,27.0958 14.5,31.5C 13.5067,40.3178 13.1734,49.3178 13.5,58.5C 12.1778,49.3251 12.1778,39.9918 13.5,30.5C 20.2038,25.2923 27.0371,20.2923 34,15.5C 40.9048,20.3724 47.7381,25.3724 54.5,30.5C 55.8222,39.9918 55.8222,49.3251 54.5,58.5 Z"/></g>
<g><path style="opacity:1" fill="#484b53" d="M 14.5,31.5 C 14.3336,40.5062 14.5002,49.5062 15,58.5C 15.5,59 16,59.5 16.5,60C 28.1667,60.6667 39.8333,60.6667 51.5,60C 52,59.5 52.5,59 53,58.5C 53.4998,49.8397 53.6664,41.1731 53.5,32.5C 54.499,40.4136 54.8324,49.0803 54.5,58.5C 53.7101,59.7942 52.7101,60.9609 51.5,62C 39.5,62.6667 27.5,62.6667 15.5,62C 14.1772,61.1841 13.5106,60.0174 13.5,58.5C 13.1734,49.3178 13.5067,40.3178 14.5,31.5 Z"/></g>
<g><path style="opacity:1" fill="#4f5258" d="M 29.5,33.5 C 41.3719,33.5001 44.7052,38.6668 39.5,49C 29.0942,52.8954 24.2609,49.3954 25,38.5C 26.3657,36.6383 27.8657,34.9717 29.5,33.5 Z"/></g>
<g><path style="opacity:1" fill="#f5f5f6" d="M 30.5,35.5 C 36.0931,34.4506 39.4265,36.6173 40.5,42C 39.306,48.1491 35.6393,50.1491 29.5,48C 25.3339,43.3683 25.6673,39.2017 30.5,35.5 Z"/></g>
</svg>
