<?xml version="1.0" encoding="UTF-8"?>
<!DOCTYPE svg PUBLIC "-//W3C//DTD SVG 1.1//EN" "http://www.w3.org/Graphics/SVG/1.1/DTD/svg11.dtd">
<svg xmlns="http://www.w3.org/2000/svg" version="1.1" width="70px" height="72px" style="shape-rendering:geometricPrecision; text-rendering:geometricPrecision; image-rendering:optimizeQuality; fill-rule:evenodd; clip-rule:evenodd" xmlns:xlink="http://www.w3.org/1999/xlink">
<g><path style="opacity:1" fill="#fcfcfc" d="M -0.5,-0.5 C 22.8333,-0.5 46.1667,-0.5 69.5,-0.5C 69.5,23.5 69.5,47.5 69.5,71.5C 46.1667,71.5 22.8333,71.5 -0.5,71.5C -0.5,47.5 -0.5,23.5 -0.5,-0.5 Z"/></g>
<g><path style="opacity:1" fill="#56585e" d="M 18.5,18.5 C 27.0332,18.6048 31.3665,22.9381 31.5,31.5C 30.8338,39.6693 26.5004,43.8359 18.5,44C 9.25039,35.2996 9.25039,26.7996 18.5,18.5 Z"/></g>
<g><path style="opacity:1" fill="#f7f8f8" d="M 17.5,21.5 C 27.1455,21.3305 30.6455,25.9972 28,35.5C 26.7895,40.7103 23.6228,42.5437 18.5,41C 12.2536,34.7838 11.9202,28.2838 17.5,21.5 Z"/></g>
<g><path style="opacity:1" fill="#56575d" d="M 43.5,18.5 C 56.6736,21.1969 59.8402,28.5302 53,40.5C 47.8854,46.0753 43.2187,45.7419 39,39.5C 34.4986,31.0199 35.9986,24.0199 43.5,18.5 Z"/></g>
<g><path style="opacity:1" fill="#f7f8f8" d="M 42.5,21.5 C 52.1455,21.3305 55.6455,25.9972 53,35.5C 51.7895,40.7103 48.6228,42.5437 43.5,41C 37.3133,34.7114 36.98,28.2114 42.5,21.5 Z"/></g>
<g><path style="opacity:1" fill="#4e5156" d="M 14.5,46.5 C 20.9348,46.2306 27.2682,46.8973 33.5,48.5C 42.7507,45.3996 51.7507,45.8996 60.5,50C 64.3001,53.0973 65.3001,56.9307 63.5,61.5C 61.6418,52.1726 55.8085,47.8392 46,48.5C 42.6612,48.423 39.4945,49.0897 36.5,50.5C 39.0202,53.7267 40.3536,57.3934 40.5,61.5C 39.5,61.5 38.5,61.5 37.5,61.5C 37.846,58.3979 37.1793,55.5645 35.5,53C 33.6332,52.2888 32.1332,52.7888 31,54.5C 30.3187,56.8947 29.4853,59.228 28.5,61.5C 27.2391,57.2743 28.2391,53.6076 31.5,50.5C 23.5242,47.4158 15.8576,47.9158 8.5,52C 6.53637,55.1045 4.8697,58.2711 3.5,61.5C 2.05374,58.1775 2.55374,55.1775 5,52.5C 7.85521,49.7731 11.0219,47.7731 14.5,46.5 Z"/></g>
</svg>
