<?xml version="1.0" encoding="UTF-8"?>
<!DOCTYPE svg PUBLIC "-//W3C//DTD SVG 1.1//EN" "http://www.w3.org/Graphics/SVG/1.1/DTD/svg11.dtd">
<svg xmlns="http://www.w3.org/2000/svg" version="1.1" width="70px" height="72px" style="shape-rendering:geometricPrecision; text-rendering:geometricPrecision; image-rendering:optimizeQuality; fill-rule:evenodd; clip-rule:evenodd" xmlns:xlink="http://www.w3.org/1999/xlink">
<g><path style="opacity:1" fill="#fdfdfd" d="M -0.5,-0.5 C 22.8333,-0.5 46.1667,-0.5 69.5,-0.5C 69.5,23.5 69.5,47.5 69.5,71.5C 46.1667,71.5 22.8333,71.5 -0.5,71.5C -0.5,47.5 -0.5,23.5 -0.5,-0.5 Z"/></g>
<g><path style="opacity:1" fill="#d04845" d="M 47.5,33.5 C 47.1667,32.5 46.5,31.8333 45.5,31.5C 45.1667,31.5 44.8333,31.5 44.5,31.5C 44.1667,30.5 43.5,29.8333 42.5,29.5C 42.7373,28.209 42.404,27.209 41.5,26.5C 41.2834,21.7697 41.6167,17.1031 42.5,12.5C 43.2543,9.90902 44.921,8.07568 47.5,7C 61.1805,4.36092 67.6805,9.86092 67,23.5C 63.3663,32.0121 56.8663,35.3455 47.5,33.5 Z"/></g>
<g><path style="opacity:1" fill="#4a4d53" d="M 39.5,17.5 C 39.5,18.1667 39.5,18.8333 39.5,19.5C 36.1667,19.5 32.8333,19.5 29.5,19.5C 29.5,22.8333 29.5,26.1667 29.5,29.5C 33.8333,29.5 38.1667,29.5 42.5,29.5C 43.5,29.8333 44.1667,30.5 44.5,31.5C 33.1667,31.5 21.8333,31.5 10.5,31.5C 10.1746,39.3516 10.508,47.0182 11.5,54.5C 17.0262,54.1786 22.3595,54.5119 27.5,55.5C 22.0247,56.4889 16.358,56.8222 10.5,56.5C 9.88258,56.3893 9.38258,56.056 9,55.5C 8.33333,46.8333 8.33333,38.1667 9,29.5C 10.746,25.6733 12.746,22.0066 15,18.5C 23.081,17.5175 31.2476,17.1842 39.5,17.5 Z"/></g>
<g><path style="opacity:1" fill="#c15d5c" d="M 42.5,12.5 C 41.6167,17.1031 41.2834,21.7697 41.5,26.5C 40.3882,24.4006 39.7215,22.0673 39.5,19.5C 39.5,18.8333 39.5,18.1667 39.5,17.5C 40.0652,15.58 41.0652,13.9133 42.5,12.5 Z"/></g>
<g><path style="opacity:1" fill="#f8dbdc" d="M 53.5,11.5 C 54.8117,13.7432 55.4783,16.4098 55.5,19.5C 55.1667,22.1667 54.8333,24.8333 54.5,27.5C 53.6735,23.5408 53.1735,19.5408 53,15.5C 52.1072,16.7112 51.2739,16.7112 50.5,15.5C 51.5244,14.1482 52.5244,12.8149 53.5,11.5 Z"/></g>
<g><path style="opacity:1" fill="#fcfcfd" d="M 16.5,20.5 C 19.8333,20.5 23.1667,20.5 26.5,20.5C 26.5,23.1667 26.5,25.8333 26.5,28.5C 21.706,29.0969 17.3727,28.4302 13.5,26.5C 13.9925,24.1815 14.9925,22.1815 16.5,20.5 Z"/></g>
<g><path style="opacity:1" fill="#f6f5f5" d="M 39.5,19.5 C 39.7215,22.0673 40.3882,24.4006 41.5,26.5C 42.404,27.209 42.7373,28.209 42.5,29.5C 38.1667,29.5 33.8333,29.5 29.5,29.5C 29.5,26.1667 29.5,22.8333 29.5,19.5C 32.8333,19.5 36.1667,19.5 39.5,19.5 Z"/></g>
<g><path style="opacity:1" fill="#d2d3d5" d="M 16.5,20.5 C 19.9619,19.5184 23.6286,19.185 27.5,19.5C 27.5,22.8333 27.5,26.1667 27.5,29.5C 22.1254,29.8282 16.7921,29.4948 11.5,28.5C 11.8555,27.4777 12.5222,26.811 13.5,26.5C 17.3727,28.4302 21.706,29.0969 26.5,28.5C 26.5,25.8333 26.5,23.1667 26.5,20.5C 23.1667,20.5 19.8333,20.5 16.5,20.5 Z"/></g>
<g><path style="opacity:1" fill="#e2e4e9" d="M 44.5,31.5 C 44.8333,31.5 45.1667,31.5 45.5,31.5C 45.5,31.8333 45.5,32.1667 45.5,32.5C 34.1667,32.5 22.8333,32.5 11.5,32.5C 11.5,39.8333 11.5,47.1667 11.5,54.5C 10.508,47.0182 10.1746,39.3516 10.5,31.5C 21.8333,31.5 33.1667,31.5 44.5,31.5 Z"/></g>
<g><path style="opacity:1" fill="#524f55" d="M 45.5,31.5 C 46.5,31.8333 47.1667,32.5 47.5,33.5C 47.719,34.675 47.3857,35.675 46.5,36.5C 45.5713,35.3112 45.238,33.9778 45.5,32.5C 45.5,32.1667 45.5,31.8333 45.5,31.5 Z"/></g>
<g><path style="opacity:1" fill="#505258" d="M 37.5,39.5 C 49.6847,38.1916 55.518,43.525 55,55.5C 51.318,63.8436 45.1513,66.3436 36.5,63C 30.7747,58.9139 28.9414,53.4139 31,46.5C 32.6941,43.6424 34.8607,41.309 37.5,39.5 Z"/></g>
<g><path style="opacity:1" fill="#f6f6f7" d="M 38.5,41.5 C 50.7804,40.4243 55.2804,45.7576 52,57.5C 46.8998,63.1337 41.2331,63.8004 35,59.5C 30.8098,52.2836 31.9765,46.2836 38.5,41.5 Z"/></g>
<g><path style="opacity:1" fill="#505258" d="M 46.5,47.5 C 48.0281,47.5173 48.5281,48.184 48,49.5C 45.6449,51.8551 43.3116,54.1884 41,56.5C 38.1833,55.5838 37.0166,53.9171 37.5,51.5C 38.548,52.3829 39.7147,53.0496 41,53.5C 43.0168,51.6507 44.8501,49.6507 46.5,47.5 Z"/></g>
<g><path style="opacity:1" fill="#c2c4c9" d="M 27.5,55.5 C 28.0431,55.56 28.3764,55.8933 28.5,56.5C 22.3456,57.8166 16.3456,57.8166 10.5,56.5C 16.358,56.8222 22.0247,56.4889 27.5,55.5 Z"/></g>
</svg>
