<?xml version="1.0" encoding="UTF-8"?>
<!DOCTYPE svg PUBLIC "-//W3C//DTD SVG 1.1//EN" "http://www.w3.org/Graphics/SVG/1.1/DTD/svg11.dtd">
<svg xmlns="http://www.w3.org/2000/svg" version="1.1" width="70px" height="72px" style="shape-rendering:geometricPrecision; text-rendering:geometricPrecision; image-rendering:optimizeQuality; fill-rule:evenodd; clip-rule:evenodd" xmlns:xlink="http://www.w3.org/1999/xlink">
<g><path style="opacity:1" fill="#fdfcfc" d="M -0.5,-0.5 C 22.8333,-0.5 46.1667,-0.5 69.5,-0.5C 69.5,23.5 69.5,47.5 69.5,71.5C 46.1667,71.5 22.8333,71.5 -0.5,71.5C -0.5,47.5 -0.5,23.5 -0.5,-0.5 Z"/></g>
<g><path style="opacity:1" fill="#d14a47" d="M 52.5,36.5 C 51.8333,36.5 51.1667,36.5 50.5,36.5C 47.4308,36.0146 44.7641,34.6813 42.5,32.5C 42.1667,31.5 41.5,30.8333 40.5,30.5C 36.2607,21.4921 38.2607,14.3254 46.5,9C 54.499,7.21697 60.6657,9.71697 65,16.5C 67.1497,27.213 62.983,33.8797 52.5,36.5 Z"/></g>
<g><path style="opacity:1" fill="#f3d4d5" d="M 49.5,14.5 C 56.9778,14.4849 59.8111,18.1516 58,25.5C 56.6344,29.7662 53.8011,31.2662 49.5,30C 45.5236,24.7656 45.5236,19.5989 49.5,14.5 Z"/></g>
<g><path style="opacity:1" fill="#d14542" d="M 55.5,19.5 C 55.6633,21.8568 55.4966,24.1902 55,26.5C 53.0312,29.1239 51.1978,29.1239 49.5,26.5C 49.3367,24.1432 49.5034,21.8098 50,19.5C 51.8278,18.2475 53.6612,18.2475 55.5,19.5 Z"/></g>
<g><path style="opacity:1" fill="#bf5a59" d="M 55.5,19.5 C 53.6612,18.2475 51.8278,18.2475 50,19.5C 49.5034,21.8098 49.3367,24.1432 49.5,26.5C 48.3659,24.0336 48.1993,21.367 49,18.5C 51.8642,15.5983 54.0308,15.9316 55.5,19.5 Z"/></g>
<g><path style="opacity:1" fill="#f5f4f5" d="M 42.5,32.5 C 44.7641,34.6813 47.4308,36.0146 50.5,36.5C 49.9785,41.6349 48.6451,46.4682 46.5,51C 38.8333,51.6667 31.1667,51.6667 23.5,51C 21.8514,44.9253 20.518,38.7587 19.5,32.5C 27.1667,32.5 34.8333,32.5 42.5,32.5 Z"/></g>
<g><path style="opacity:1" fill="#bbbbbe" d="M 41.5,41.5 C 39.5,41.5 37.5,41.5 35.5,41.5C 35.1667,33.5 34.8333,33.5 34.5,41.5C 32.5,41.5 30.5,41.5 28.5,41.5C 29.9187,40.5489 31.5853,40.2155 33.5,40.5C 33.5,38.5 33.5,36.5 33.5,34.5C 34.5,34.5 35.5,34.5 36.5,34.5C 36.5,36.5 36.5,38.5 36.5,40.5C 38.4147,40.2155 40.0813,40.5489 41.5,41.5 Z"/></g>
<g><path style="opacity:1" fill="#3c4047" d="M 41.5,41.5 C 39.7354,42.4614 37.7354,42.7947 35.5,42.5C 35.5,44.8333 35.5,47.1667 35.5,49.5C 35.1667,49.5 34.8333,49.5 34.5,49.5C 34.5,47.1667 34.5,44.8333 34.5,42.5C 32.2646,42.7947 30.2646,42.4614 28.5,41.5C 30.5,41.5 32.5,41.5 34.5,41.5C 34.8333,33.5 35.1667,33.5 35.5,41.5C 37.5,41.5 39.5,41.5 41.5,41.5 Z"/></g>
<g><path style="opacity:1" fill="#41444a" d="M 40.5,30.5 C 41.5,30.8333 42.1667,31.5 42.5,32.5C 34.8333,32.5 27.1667,32.5 19.5,32.5C 20.518,38.7587 21.8514,44.9253 23.5,51C 31.1667,51.6667 38.8333,51.6667 46.5,51C 48.6451,46.4682 49.9785,41.6349 50.5,36.5C 51.1667,36.5 51.8333,36.5 52.5,36.5C 52.2089,41.8264 51.2089,46.993 49.5,52C 40.602,53.6091 31.602,53.9424 22.5,53C 20.9963,51.5093 20.1629,49.676 20,47.5C 18.2807,39.1822 16.7807,30.8489 15.5,22.5C 12.4281,22.8174 9.42814,22.4841 6.5,21.5C 10.1073,20.5108 13.774,20.1774 17.5,20.5C 17.8333,23.8333 18.1667,27.1667 18.5,30.5C 25.8333,30.5 33.1667,30.5 40.5,30.5 Z"/></g>
<g><path style="opacity:1" fill="#9ea1a5" d="M 41.5,41.5 C 42.0431,41.56 42.3764,41.8933 42.5,42.5C 40.604,43.4656 38.604,43.7989 36.5,43.5C 36.7947,45.7354 36.4614,47.7354 35.5,49.5C 35.5,47.1667 35.5,44.8333 35.5,42.5C 37.7354,42.7947 39.7354,42.4614 41.5,41.5 Z"/></g>
<g><path style="opacity:1" fill="#a3a5a8" d="M 28.5,41.5 C 30.2646,42.4614 32.2646,42.7947 34.5,42.5C 34.5,44.8333 34.5,47.1667 34.5,49.5C 33.5386,47.7354 33.2053,45.7354 33.5,43.5C 31.396,43.7989 29.396,43.4656 27.5,42.5C 27.6236,41.8933 27.9569,41.56 28.5,41.5 Z"/></g>
<g><path style="opacity:1" fill="#4c4e54" d="M 45.5,59.5 C 49.35,59.7007 50.35,61.5341 48.5,65C 45.7629,66.0798 44.0963,65.2464 43.5,62.5C 43.9424,61.2613 44.6091,60.2613 45.5,59.5 Z"/></g>
<g><path style="opacity:1" fill="#505258" d="M 22.5,59.5 C 26.485,59.6294 27.8183,61.4628 26.5,65C 20.5456,66.2271 19.2123,64.3938 22.5,59.5 Z"/></g>
</svg>
