<?xml version="1.0" encoding="UTF-8"?>
<!DOCTYPE svg PUBLIC "-//W3C//DTD SVG 1.1//EN" "http://www.w3.org/Graphics/SVG/1.1/DTD/svg11.dtd">
<svg xmlns="http://www.w3.org/2000/svg" version="1.1" width="64px" height="66px" style="shape-rendering:geometricPrecision; text-rendering:geometricPrecision; image-rendering:optimizeQuality; fill-rule:evenodd; clip-rule:evenodd" xmlns:xlink="http://www.w3.org/1999/xlink">
<g><path style="opacity:1" fill="#fefdfb" d="M -0.5,-0.5 C 1.5,-0.5 3.5,-0.5 5.5,-0.5C 3.16667,1.16667 1.16667,3.16667 -0.5,5.5C -0.5,3.5 -0.5,1.5 -0.5,-0.5 Z"/></g>
<g><path style="opacity:1" fill="#faf3d3" d="M 5.5,-0.5 C 22.8333,-0.5 40.1667,-0.5 57.5,-0.5C 59.8333,1.16667 61.8333,3.16667 63.5,5.5C 63.5,23.1667 63.5,40.8333 63.5,58.5C 61.4032,61.0527 59.0698,63.386 56.5,65.5C 40.1667,65.5 23.8333,65.5 7.5,65.5C 4.23924,63.9098 1.57257,61.5765 -0.5,58.5C -0.5,40.8333 -0.5,23.1667 -0.5,5.5C 1.16667,3.16667 3.16667,1.16667 5.5,-0.5 Z"/></g>
<g><path style="opacity:1" fill="#fefefa" d="M 57.5,-0.5 C 59.5,-0.5 61.5,-0.5 63.5,-0.5C 63.5,1.5 63.5,3.5 63.5,5.5C 61.8333,3.16667 59.8333,1.16667 57.5,-0.5 Z"/></g>
<g><path style="opacity:1" fill="#eacb4f" d="M 55.5,16.5 C 55.6665,26.8387 55.4998,37.172 55,47.5C 54.2828,48.0442 53.7828,48.7109 53.5,49.5C 39.5748,50.6478 25.5748,50.8145 11.5,50C 10.6667,49.1667 9.83333,48.3333 9,47.5C 8.33333,37.1667 8.33333,26.8333 9,16.5C 9.5,15.3333 10.3333,14.5 11.5,14C 24.8333,13.3333 38.1667,13.3333 51.5,14C 52.9839,14.6622 54.3172,15.4955 55.5,16.5 Z"/></g>
<g><path style="opacity:1" fill="#faf2cf" d="M 32.5,21.5 C 38.5368,21.1707 44.5368,21.5041 50.5,22.5C 47.5,22.8333 44.5,23.1667 41.5,23.5C 38.0866,23.483 35.0866,22.8164 32.5,21.5 Z"/></g>
<g><path style="opacity:1" fill="#fcf5b7" d="M 55.5,16.5 C 56.6588,26.992 56.8255,37.6586 56,48.5C 55.3292,49.2524 54.4959,49.5858 53.5,49.5C 53.7828,48.7109 54.2828,48.0442 55,47.5C 55.4998,37.172 55.6665,26.8387 55.5,16.5 Z"/></g>
<g><path style="opacity:1" fill="#fcefa3" d="M 19.5,22.5 C 18.8505,24.4352 18.5172,26.4352 18.5,28.5C 17.8614,27.9032 17.528,27.0698 17.5,26C 17.3866,24.3009 18.0532,23.1342 19.5,22.5 Z"/></g>
<g><path style="opacity:1" fill="#faf2cf" d="M 18.5,28.5 C 18.5172,26.4352 18.8505,24.4352 19.5,22.5C 21.2884,21.3775 23.2884,21.2109 25.5,22C 28.9945,28.5206 26.9945,31.1873 19.5,30C 18.944,29.6174 18.6107,29.1174 18.5,28.5 Z"/></g>
<g><path style="opacity:1" fill="#faf2c4" d="M 32.5,27.5 C 38.1764,27.3339 43.8431,27.5006 49.5,28C 49.9574,28.414 50.2907,28.914 50.5,29.5C 44.5368,30.4959 38.5368,30.8293 32.5,30.5C 32.5,29.5 32.5,28.5 32.5,27.5 Z"/></g>
<g><path style="opacity:1" fill="#faf2cf" d="M 18.5,33.5 C 27.2669,32.8658 31.9336,36.8658 32.5,45.5C 26.1667,45.5 19.8333,45.5 13.5,45.5C 12.9781,40.5486 14.6447,36.5486 18.5,33.5 Z"/></g>
<g><path style="opacity:1" fill="#fefefc" d="M -0.5,58.5 C 1.57257,61.5765 4.23924,63.9098 7.5,65.5C 4.83333,65.5 2.16667,65.5 -0.5,65.5C -0.5,63.1667 -0.5,60.8333 -0.5,58.5 Z"/></g>
<g><path style="opacity:1" fill="#fffefc" d="M 63.5,58.5 C 63.5,60.8333 63.5,63.1667 63.5,65.5C 61.1667,65.5 58.8333,65.5 56.5,65.5C 59.0698,63.386 61.4032,61.0527 63.5,58.5 Z"/></g>
</svg>
