<?xml version="1.0" encoding="UTF-8"?>
<!DOCTYPE svg PUBLIC "-//W3C//DTD SVG 1.1//EN" "http://www.w3.org/Graphics/SVG/1.1/DTD/svg11.dtd">
<svg xmlns="http://www.w3.org/2000/svg" version="1.1" width="70px" height="72px" style="shape-rendering:geometricPrecision; text-rendering:geometricPrecision; image-rendering:optimizeQuality; fill-rule:evenodd; clip-rule:evenodd" xmlns:xlink="http://www.w3.org/1999/xlink">
<g><path style="opacity:1" fill="#fcfcfc" d="M -0.5,-0.5 C 22.8333,-0.5 46.1667,-0.5 69.5,-0.5C 69.5,23.5 69.5,47.5 69.5,71.5C 46.1667,71.5 22.8333,71.5 -0.5,71.5C -0.5,47.5 -0.5,23.5 -0.5,-0.5 Z"/></g>
<g><path style="opacity:1" fill="#4b4e54" d="M 64.5,21.5 C 64.5,22.1667 64.1667,22.5 63.5,22.5C 48.0888,22.1832 32.7554,22.5166 17.5,23.5C 13.8333,22.1667 10.1667,22.1667 6.5,23.5C 5.83333,23.5 5.5,23.1667 5.5,22.5C 5.61071,21.8826 5.94404,21.3826 6.5,21C 26.0044,20.171 45.3377,20.3377 64.5,21.5 Z"/></g>
<g><path style="opacity:1" fill="#b1b3b7" d="M 63.5,22.5 C 63.5,22.8333 63.5,23.1667 63.5,23.5C 47.9197,23.5415 32.5863,23.5415 17.5,23.5C 32.7554,22.5166 48.0888,22.1832 63.5,22.5 Z"/></g>
<g><path style="opacity:1" fill="#f7f7f8" d="M 17.5,23.5 C 32.5863,23.5415 47.9197,23.5415 63.5,23.5C 64.8203,35.7353 64.8203,48.0687 63.5,60.5C 44.175,60.6469 25.175,60.3136 6.5,59.5C 6.3347,55.8183 6.50137,52.1516 7,48.5C 11.5456,43.7969 11.5456,39.1302 7,34.5C 6.50137,30.8484 6.3347,27.1817 6.5,23.5C 10.1667,22.1667 13.8333,22.1667 17.5,23.5 Z"/></g>
<g><path style="opacity:1" fill="#53565b" d="M 5.5,22.5 C 5.5,23.1667 5.83333,23.5 6.5,23.5C 6.3347,27.1817 6.50137,30.8484 7,34.5C 11.5456,39.1302 11.5456,43.7969 7,48.5C 6.50137,52.1516 6.3347,55.8183 6.5,59.5C 5.83333,59.5 5.5,59.8333 5.5,60.5C 4.35303,56.3537 4.18636,52.0204 5,47.5C 9.66667,43.5 9.66667,39.5 5,35.5C 4.18636,30.9796 4.35303,26.6463 5.5,22.5 Z"/></g>
<g><path style="opacity:1" fill="#5f6266" d="M 16.5,26.5 C 17.5862,26.62 18.2528,27.2867 18.5,28.5C 18.1667,29.1667 17.8333,29.8333 17.5,30.5C 16.5713,29.3112 16.238,27.9778 16.5,26.5 Z"/></g>
<g><path style="opacity:1" fill="#414449" d="M 16.5,33.5 C 18.4646,33.9483 18.7979,34.9483 17.5,36.5C 16.6143,35.675 16.281,34.675 16.5,33.5 Z"/></g>
<g><path style="opacity:1" fill="#54575d" d="M 64.5,21.5 C 65.8333,34.8333 65.8333,48.1667 64.5,61.5C 64.5,60.8333 64.1667,60.5 63.5,60.5C 64.8203,48.0687 64.8203,35.7353 63.5,23.5C 63.5,23.1667 63.5,22.8333 63.5,22.5C 64.1667,22.5 64.5,22.1667 64.5,21.5 Z"/></g>
<g><path style="opacity:1" fill="#5c5e63" d="M 16.5,39.5 C 17.5862,39.62 18.2528,40.2867 18.5,41.5C 18.1667,42.1667 17.8333,42.8333 17.5,43.5C 16.5713,42.3112 16.238,40.9778 16.5,39.5 Z"/></g>
<g><path style="opacity:1" fill="#505258" d="M 36.5,28.5 C 40.7889,29.2495 42.7889,31.9161 42.5,36.5C 53.1688,36.0069 54.1688,38.8402 45.5,45C 46.4438,47.7191 46.7771,50.5525 46.5,53.5C 43.3097,53.4871 40.4763,52.4871 38,50.5C 35.5237,52.4871 32.6903,53.4871 29.5,53.5C 29.2739,50.7508 29.6072,48.0841 30.5,45.5C 28.2387,43.5446 26.2387,41.378 24.5,39C 24.7591,37.7387 25.4258,36.7387 26.5,36C 28.8333,35.6667 31.1667,35.3333 33.5,35C 34.129,32.6252 35.129,30.4586 36.5,28.5 Z"/></g>
<g><path style="opacity:1" fill="#f5f6f6" d="M 37.5,30.5 C 39.6545,32.6174 40.6545,35.284 40.5,38.5C 43.2469,38.1866 45.9135,38.52 48.5,39.5C 46.8513,40.6477 45.3513,41.981 44,43.5C 44.4382,46.1986 44.2716,48.8653 43.5,51.5C 39.8333,47.5 36.1667,47.5 32.5,51.5C 31.7284,48.8653 31.5618,46.1986 32,43.5C 30.3651,42.2744 28.8651,40.941 27.5,39.5C 33.3722,39.2423 36.7056,36.2423 37.5,30.5 Z"/></g>
<g><path style="opacity:1" fill="#43444b" d="M 16.5,46.5 C 18.4646,46.9483 18.7979,47.9483 17.5,49.5C 16.6143,48.675 16.281,47.675 16.5,46.5 Z"/></g>
<g><path style="opacity:1" fill="#4d5054" d="M 16.5,52.5 C 17.5862,52.62 18.2528,53.2867 18.5,54.5C 18.1667,55.1667 17.8333,55.8333 17.5,56.5C 16.5713,55.3112 16.238,53.9778 16.5,52.5 Z"/></g>
<g><path style="opacity:1" fill="#35383f" d="M 6.5,59.5 C 25.175,60.3136 44.175,60.6469 63.5,60.5C 64.1667,60.5 64.5,60.8333 64.5,61.5C 44.6596,61.8304 24.9929,61.4971 5.5,60.5C 5.5,59.8333 5.83333,59.5 6.5,59.5 Z"/></g>
</svg>
