<?xml version="1.0" encoding="UTF-8"?>
<svg version="1.1" xmlns="http://www.w3.org/2000/svg" width="154" height="82">
<path d="M0 0 C50.82 0 101.64 0 154 0 C154 27.06 154 54.12 154 82 C103.18 82 52.36 82 0 82 C0 54.94 0 27.88 0 0 Z " fill="#FEFEFE" transform="translate(0,0)"/>
<path d="M0 0 C2 1 4 2 6 3 C9.05811465 2.81651312 11.20692777 2.4494076 13.875 0.9375 C18.38663114 -1.0529255 22.72836497 -0.47374638 27.1875 1.1875 C31.5601218 4.00541183 35.06974983 7.10543707 37 12 C37.265625 14.91015625 37.265625 14.91015625 37.25 18.0625 C37.25773437 19.62677734 37.25773437 19.62677734 37.265625 21.22265625 C37 24 37 24 35 27 C32.37302936 27.22137393 29.99106036 27.28162025 27.375 27.1875 C26.66859375 27.17396484 25.9621875 27.16042969 25.234375 27.14648438 C23.48925872 27.1111104 21.74453392 27.05730221 20 27 C19.60167969 26.21753906 19.20335937 25.43507813 18.79296875 24.62890625 C18.26316406 23.61699219 17.73335937 22.60507812 17.1875 21.5625 C16.66542969 20.55316406 16.14335938 19.54382813 15.60546875 18.50390625 C14.18581516 15.71308782 14.18581516 15.71308782 11 15 C10.81824219 15.58007812 10.63648437 16.16015625 10.44921875 16.7578125 C8.9581894 21.39147293 7.31666424 25.69762355 5 30 C1.125 26.25 1.125 26.25 0 24 C-2.02463255 23.34786708 -2.02463255 23.34786708 -4 23 C-4.33 24.32 -4.66 25.64 -5 27 C-9.29 27 -13.58 27 -18 27 C-20.67164887 21.65670227 -21.66551742 17.98965679 -21 12 C-16.61698805 3.40255348 -9.76244669 -1.13430333 0 0 Z " fill="#C84E4A" transform="translate(68,16)"/>
<path d="M0 0 C0.66 0 1.32 0 2 0 C6 6.75 6 6.75 6 9 C10.62 9 15.24 9 20 9 C15.48931502 14.37322976 10.78504366 19.48975137 5.875 24.5 C5.17246094 25.23992188 4.46992187 25.97984375 3.74609375 26.7421875 C3.06417969 27.43570313 2.38226563 28.12921875 1.6796875 28.84375 C1.06851074 29.47474609 0.45733398 30.10574219 -0.17236328 30.75585938 C-2 32 -2 32 -3.91845703 31.98828125 C-6.84886695 30.59697239 -8.70493056 28.64799891 -10.984375 26.34375 C-11.44483215 25.88141968 -11.90528931 25.41908936 -12.37969971 24.94274902 C-13.34797417 23.96776957 -14.31265279 22.98920742 -15.27392578 22.00732422 C-16.75167309 20.49829149 -18.23994947 19.00031497 -19.73046875 17.50390625 C-27 10.16345425 -27 10.16345425 -27 9 C-23.04 9 -19.08 9 -15 9 C-15 8.34 -15 7.68 -15 7 C-12.37812506 8.04874998 -11.20628639 8.64931313 -9.75 11.125 C-9.5025 11.74375 -9.255 12.3625 -9 13 C-8.01 13 -7.02 13 -6 13 C-4.02 8.71 -2.04 4.42 0 0 Z " fill="#C8534E" transform="translate(80,37)"/>
<path d="M0 0 C4 1 4 1 5.484375 2.99609375 C5.90203125 3.80175781 6.3196875 4.60742188 6.75 5.4375 C7.17796875 6.24058594 7.6059375 7.04367188 8.046875 7.87109375 C9 10 9 10 9 12 C13.95 12 18.9 12 24 12 C21 15 21 15 17.64453125 15.29296875 C16.37996094 15.25816406 15.11539063 15.22335938 13.8125 15.1875 C12.54019531 15.16042969 11.26789063 15.13335937 9.95703125 15.10546875 C8.49330078 15.05326172 8.49330078 15.05326172 7 15 C3 8.25 3 8.25 3 6 C2.34 6 1.68 6 1 6 C0.7525 6.825 0.505 7.65 0.25 8.5 C-1.18704811 12.52373471 -3.02354515 16.21979024 -5 20 C-6.8984375 19.65625 -6.8984375 19.65625 -9 19 C-10.625 16.5 -10.625 16.5 -12 14 C-12.66 13.67 -13.32 13.34 -14 13 C-14 13.66 -14 14.32 -14 15 C-15.93681161 15.08107583 -17.8745934 15.13922475 -19.8125 15.1875 C-20.89144531 15.22230469 -21.97039063 15.25710937 -23.08203125 15.29296875 C-26 15 -26 15 -29 12 C-24.71 12 -20.42 12 -16 12 C-15.67 10.68 -15.34 9.36 -15 8 C-12.6875 8.1875 -12.6875 8.1875 -10 9 C-9.01 10.65 -8.02 12.3 -7 14 C-4.69 9.38 -2.38 4.76 0 0 Z " fill="#FAEDEC" transform="translate(79,31)"/>
<path d="M0 0 C1.828125 0.22265625 1.828125 0.22265625 4 1 C5.484375 2.99609375 5.484375 2.99609375 6.75 5.4375 C7.39195313 6.64212891 7.39195313 6.64212891 8.046875 7.87109375 C9 10 9 10 9 12 C13.95 12 18.9 12 24 12 C21 15 21 15 17.64453125 15.29296875 C16.37996094 15.25816406 15.11539063 15.22335938 13.8125 15.1875 C12.54019531 15.16042969 11.26789063 15.13335937 9.95703125 15.10546875 C8.49330078 15.05326172 8.49330078 15.05326172 7 15 C3 8.25 3 8.25 3 6 C2.34 6 1.68 6 1 6 C0.731875 6.639375 0.46375 7.27875 0.1875 7.9375 C-1 10 -1 10 -4 11 C-3.52269162 9.5410574 -3.04308958 8.08286504 -2.5625 6.625 C-2.29566406 5.81289063 -2.02882813 5.00078125 -1.75390625 4.1640625 C-1 2 -1 2 0 0 Z " fill="#F8E8E7" transform="translate(79,31)"/>
<path d="M0 0 C1.32 0.33 2.64 0.66 4 1 C4.33 2.32 4.66 3.64 5 5 C9.95 5 14.9 5 20 5 C16.31927739 8.68072261 15.0675951 8.45777004 10 8.5 C8.14375 8.54640625 8.14375 8.54640625 6.25 8.59375 C3 8 3 8 1.0625 5.65625 C0 3 0 3 0 0 Z " fill="#FAEAEA" transform="translate(83,38)"/>
<path d="M0 0 C1.32 0.33 2.64 0.66 4 1 C4 1.99 4 2.98 4 4 C3.01 4 2.02 4 1 4 C0.67 4.66 0.34 5.32 0 6 C-0.66 6 -1.32 6 -2 6 C-1.34 4.02 -0.68 2.04 0 0 Z " fill="#F5CDCC" transform="translate(79,31)"/>
</svg>
