<?xml version="1.0" encoding="UTF-8"?>
<svg version="1.1" xmlns="http://www.w3.org/2000/svg" width="154" height="82">
<path d="M0 0 C50.82 0 101.64 0 154 0 C154 27.06 154 54.12 154 82 C103.18 82 52.36 82 0 82 C0 54.94 0 27.88 0 0 Z " fill="#FEFEFE" transform="translate(0,0)"/>
<path d="M0 0 C1.60488281 0.03383789 1.60488281 0.03383789 3.2421875 0.06835938 C5.87124407 0.12704367 8.49738582 0.2090882 11.125 0.3125 C11.50718767 1.96864657 11.83895102 3.63707024 12.125 5.3125 C9.99920503 7.43829497 5.47287605 6.75921369 2.59375 6.93359375 C1.7790625 7.05863281 0.964375 7.18367188 0.125 7.3125 C-0.205 7.9725 -0.535 8.6325 -0.875 9.3125 C11.38621384 9.77503292 11.38621384 9.77503292 21.875 4.1875 C22.59171875 3.44242188 23.3084375 2.69734375 24.046875 1.9296875 C26.125 0.3125 26.125 0.3125 28.890625 0.5703125 C29.62796875 0.81523438 30.3653125 1.06015625 31.125 1.3125 C31.03718155 3.99096282 30.65566996 5.75623935 28.77832031 7.72412109 C26.9768893 9.21398385 25.13493248 10.61733995 23.25 12 C22.29287109 12.72799805 22.29287109 12.72799805 21.31640625 13.47070312 C15.45030234 17.91008239 11.81064621 19.60036469 4.30078125 19.5078125 C3.43938034 19.5049826 2.57797943 19.50215271 1.69047546 19.49923706 C-1.06065769 19.48804237 -3.81146525 19.46293921 -6.5625 19.4375 C-8.42772967 19.42746927 -10.29296445 19.41834359 -12.15820312 19.41015625 C-16.7305942 19.38810538 -21.30274189 19.35358049 -25.875 19.3125 C-25.875 15.0225 -25.875 10.7325 -25.875 6.3125 C-23.98697917 6.21484375 -22.09895833 6.1171875 -20.2109375 6.01953125 C-17.59158934 5.42728764 -17.59158934 5.42728764 -15.34375 2.78125 C-10.93216651 -1.11678996 -5.56301749 -0.22265772 0 0 Z " fill="#567899" transform="translate(75.875,48.6875)"/>
<path d="M0 0 C3.375 1.5 3.375 1.5 6 3 C6 2.34 6 1.68 6 1 C8.88861709 -0.44430855 10.79647701 -0.37688506 14 0 C16.9375 2.0625 16.9375 2.0625 19 5 C19.01346804 10.60270266 17.35231433 13.35297338 13.64648438 17.23632812 C13.08251953 17.79771484 12.51855469 18.35910156 11.9375 18.9375 C11.36966797 19.52595703 10.80183594 20.11441406 10.21679688 20.72070312 C8.82433899 22.15996632 7.41391972 23.58181506 6 25 C1.73725557 24.15874315 -0.09314104 22.24736221 -3.125 19.125 C-3.99382812 18.24070312 -4.86265625 17.35640625 -5.7578125 16.4453125 C-8.56830166 13.38021457 -9.91806522 11.75106885 -10.375 7.5625 C-10 4 -10 4 -8.375 1.5625 C-5.26675557 -0.48239765 -3.66954188 -0.51373586 0 0 Z " fill="#55789A" transform="translate(74,17)"/>
<path d="M0 0 C-0.86625 0.3403125 -0.86625 0.3403125 -1.75 0.6875 C-5.8030772 3.05179503 -8.12341425 6.77768207 -10 11 C-10.48275862 4.72413793 -10.48275862 4.72413793 -8.375 1.5625 C-5.397402 -0.39644605 -3.49644963 -0.31785906 0 0 Z " fill="#778DA1" transform="translate(74,17)"/>
</svg>
