<?xml version="1.0" encoding="UTF-8"?>
<svg version="1.1" xmlns="http://www.w3.org/2000/svg" width="154" height="82">
<path d="M0 0 C50.82 0 101.64 0 154 0 C154 27.06 154 54.12 154 82 C103.18 82 52.36 82 0 82 C0 54.94 0 27.88 0 0 Z " fill="#FEFEFE" transform="translate(0,0)"/>
<path d="M0 0 C3.11937969 1.37252707 4.4897715 1.979543 6 5 C6.1481544 6.95449844 6.22124849 8.9151053 6.25 10.875 C6.27578125 11.92429687 6.3015625 12.97359375 6.328125 14.0546875 C5.96042064 17.35527185 5.3225111 18.66663604 3 21 C-1.92579436 22.64193145 -6.86491415 22.58079592 -12 22 C-14.75 20.25 -14.75 20.25 -16 17 C-16.78095494 11.40186755 -16.98146228 6.75986341 -14.1875 1.75 C-9.48356894 -0.83255039 -5.25045214 -0.74105481 0 0 Z " fill="#54606D" transform="translate(94,20)"/>
<path d="M0 0 C3.00197464 1.80118478 4.45166366 2.90332732 6 6 C6.58255362 11.16808281 6.77708313 15.5321763 4.3125 20.1875 C-0.8017117 22.98584225 -6.31721627 23.23381 -12 22 C-14.79614698 19.44378642 -15.84856357 17.78538066 -16.56640625 14.0625 C-16.56032738 9.29666902 -16.54031224 5.96883574 -14.1875 1.75 C-9.4878463 -0.83020203 -5.24390249 -0.87398375 0 0 Z " fill="#5F6B76" transform="translate(69,45)"/>
<path d="M0 0 C3.00197464 1.80118478 4.45166366 2.90332732 6 6 C6.6382978 11.06990824 6.48500084 14.95814634 4.3125 19.625 C1.45492011 22.5238744 -1.62515235 22.51496454 -5.5625 22.6875 C-9.63102847 22.7016105 -11.31462273 22.61751814 -14.3671875 19.8671875 C-16.29744379 16.4776944 -16.56700029 14.32124622 -16.5625 10.4375 C-16.58441406 9.32246094 -16.60632812 8.20742188 -16.62890625 7.05859375 C-16 4 -16 4 -13.80859375 1.62890625 C-9.28401789 -0.99522189 -5.08215623 -0.77834825 0 0 Z " fill="#455362" transform="translate(69,20)"/>
<path d="M0 0 C1.84271484 0.00193359 1.84271484 0.00193359 3.72265625 0.00390625 C6.9375 0.4375 6.9375 0.4375 8.87109375 1.77734375 C9.9375 3.4375 9.9375 3.4375 9.9375 6.4375 C6.0625 5.5625 6.0625 5.5625 4.9375 4.4375 C3.27320949 4.33926063 1.60468069 4.30776369 -0.0625 4.3125 C-0.97 4.30992188 -1.8775 4.30734375 -2.8125 4.3046875 C-5.03216611 4.18576221 -5.03216611 4.18576221 -6.0625 5.4375 C-6.13476502 7.29037502 -6.1463122 9.14583878 -6.125 11 C-6.104375 12.794375 -6.08375 14.58875 -6.0625 16.4375 C-2.1025 16.4375 1.8575 16.4375 5.9375 16.4375 C6.5975 15.1175 7.2575 13.7975 7.9375 12.4375 C8.9275 12.7675 9.9175 13.0975 10.9375 13.4375 C10.59464037 15.97466123 10.27774059 17.93552533 8.828125 20.07421875 C5.95917079 22.14294813 3.49161163 21.90818951 0 21.9375 C-1.83884766 21.98390625 -1.83884766 21.98390625 -3.71484375 22.03125 C-7.0625 21.4375 -7.0625 21.4375 -9.47265625 19.28515625 C-11.28578467 16.0375626 -11.59990688 14.07360567 -11.5625 10.375 C-11.57796875 8.84166016 -11.57796875 8.84166016 -11.59375 7.27734375 C-10.33783093 0.56371752 -6.20041832 -0.0977984 0 0 Z " fill="#576370" transform="translate(89.0625,45.5625)"/>
<path d="M0 0 C1.79133978 -0.05391993 3.58313899 -0.09275571 5.375 -0.125 C6.37273437 -0.14820313 7.37046875 -0.17140625 8.3984375 -0.1953125 C11 0 11 0 13 2 C13.23046875 4.56640625 13.23046875 4.56640625 13.1875 7.5625 C13.17783203 9.04943359 13.17783203 9.04943359 13.16796875 10.56640625 C13 13 13 13 12 14 C10.00200428 14.09873816 8.00042842 14.12971799 6 14.125 C4.906875 14.12757812 3.81375 14.13015625 2.6875 14.1328125 C0 14 0 14 -1 13 C-1.09879565 11.189715 -1.12971514 9.37547273 -1.125 7.5625 C-1.12757812 6.57378906 -1.13015625 5.58507813 -1.1328125 4.56640625 C-1 2 -1 2 0 0 Z " fill="#F4F6F7" transform="translate(58,49)"/>
<path d="M0 0 C0.98871094 -0.01417969 1.97742188 -0.02835938 2.99609375 -0.04296875 C5.5625 0.1875 5.5625 0.1875 7.5625 2.1875 C7.828125 4.5 7.828125 4.5 7.8125 7.1875 C7.81765625 8.074375 7.8228125 8.96125 7.828125 9.875 C7.5625 12.1875 7.5625 12.1875 5.5625 14.1875 C2.99609375 14.41796875 2.99609375 14.41796875 0 14.375 C-0.99128906 14.36855469 -1.98257813 14.36210938 -3.00390625 14.35546875 C-5.4375 14.1875 -5.4375 14.1875 -6.4375 13.1875 C-6.53623816 11.18950428 -6.56721799 9.18792842 -6.5625 7.1875 C-6.56507812 6.094375 -6.56765625 5.00125 -6.5703125 3.875 C-6.33671333 -0.85194789 -4.22350983 0.02746105 0 0 Z " fill="#F8F9FA" transform="translate(63.4375,23.8125)"/>
<path d="M0 0 C1.3303125 0.00773437 1.3303125 0.00773437 2.6875 0.015625 C3.574375 0.01046875 4.46125 0.0053125 5.375 0 C7.6875 0.265625 7.6875 0.265625 9.6875 2.265625 C9.8828125 4.8671875 9.8828125 4.8671875 9.8125 7.890625 C9.79445313 8.89351562 9.77640625 9.89640625 9.7578125 10.9296875 C9.72300781 12.08597656 9.72300781 12.08597656 9.6875 13.265625 C7.06420316 14.57727342 5.05051375 14.39825346 2.125 14.390625 C1.13371094 14.39320312 0.14242187 14.39578125 -0.87890625 14.3984375 C-3.3125 14.265625 -3.3125 14.265625 -4.3125 13.265625 C-4.43737758 11.45635219 -4.48820846 9.64166393 -4.5 7.828125 C-4.51417969 6.83941406 -4.52835937 5.85070312 -4.54296875 4.83203125 C-4.23751921 1.43066948 -3.43357063 0.39439663 0 0 Z " fill="#F9FAFB" transform="translate(86.3125,23.734375)"/>
<path d="M0 0 C3.00197464 1.80118478 4.45166366 2.90332732 6 6 C6.06996014 7.70702735 6.08440154 9.41668003 6.0625 11.125 C6.05347656 12.03507812 6.04445313 12.94515625 6.03515625 13.8828125 C6.02355469 14.58148438 6.01195313 15.28015625 6 16 C5.67 16 5.34 16 5 16 C4.9175 14.9275 4.835 13.855 4.75 12.75 C4.2216827 9.09777033 4.2216827 9.09777033 2.625 6.5625 C-1.72927404 3.97067021 -6.0107911 4.76241862 -11 5 C-11.33 8.63 -11.66 12.26 -12 16 C-12.33 16 -12.66 16 -13 16 C-13 12.37 -13 8.74 -13 5 C-13.99 5.33 -14.98 5.66 -16 6 C-12.87222496 -1.21794239 -7.02281967 -0.86245154 0 0 Z " fill="#5B6674" transform="translate(69,20)"/>
<path d="M0 0 C2.71484375 -0.3984375 2.71484375 -0.3984375 5.9375 -0.375 C6.99839844 -0.38273437 8.05929688 -0.39046875 9.15234375 -0.3984375 C12 0 12 0 13.890625 1.17578125 C15.47619585 3.78304035 15.15210178 5.56201838 14.8125 8.5625 C14.71582031 9.53316406 14.61914062 10.50382812 14.51953125 11.50390625 C14 14 14 14 12 16 C11.93941406 15.21753906 11.87882812 14.43507813 11.81640625 13.62890625 C11.73261719 12.61699219 11.64882812 11.60507812 11.5625 10.5625 C11.48128906 9.55316406 11.40007812 8.54382813 11.31640625 7.50390625 C11.26788532 5.06359221 11.26788532 5.06359221 10 4 C7.98405418 3.76572222 5.961526 3.58663876 3.9375 3.4375 C2.83277344 3.35371094 1.72804687 3.26992188 0.58984375 3.18359375 C-0.26480469 3.12300781 -1.11945312 3.06242187 -2 3 C-1.34 2.01 -0.68 1.02 0 0 Z " fill="#414E5D" transform="translate(59,46)"/>
<path d="M0 0 C5.61 0 11.22 0 17 0 C17 1.32 17 2.64 17 4 C13.77602808 5.07465731 11.32529214 5.16691803 7.9375 5.1875 C6.87402344 5.20167969 5.81054688 5.21585938 4.71484375 5.23046875 C2 5 2 5 0 3 C0 2.01 0 1.02 0 0 Z " fill="#495665" transform="translate(80,37)"/>
<path d="M0 0 C1.77007714 -0.08114106 3.54122098 -0.13925505 5.3125 -0.1875 C6.29863281 -0.22230469 7.28476563 -0.25710937 8.30078125 -0.29296875 C11 0 11 0 12.85546875 1.32421875 C14 3 14 3 14 6 C10.125 5.125 10.125 5.125 9 4 C7.14712498 3.92773498 5.29166122 3.9161878 3.4375 3.9375 C2.42558594 3.94652344 1.41367188 3.95554688 0.37109375 3.96484375 C-0.41136719 3.97644531 -1.19382812 3.98804688 -2 4 C-1.34 2.68 -0.68 1.36 0 0 Z " fill="#3F4C5D" transform="translate(85,46)"/>
<path d="M0 0 C0.99 0.33 1.98 0.66 3 1 C2.52433594 1.82757813 2.52433594 1.82757813 2.0390625 2.671875 C0.87290025 5.28477989 0.59954289 7.40579002 0.375 10.25 C0.30023438 11.14203125 0.22546875 12.0340625 0.1484375 12.953125 C0.09945312 13.62859375 0.05046875 14.3040625 0 15 C-0.33 15 -0.66 15 -1 15 C-1.33 12.03 -1.66 9.06 -2 6 C-2.33 9.3 -2.66 12.6 -3 16 C-3.33 16 -3.66 16 -4 16 C-4.10841951 14.08458862 -4.18578079 12.16740227 -4.25 10.25 C-4.29640625 9.18265625 -4.3428125 8.1153125 -4.390625 7.015625 C-3.91735478 3.36197888 -2.80844958 2.27771895 0 0 Z " fill="#5E6975" transform="translate(82,46)"/>
<path d="M0 0 C0.98484375 0.02707031 1.9696875 0.05414063 2.984375 0.08203125 C3.73203125 0.11683594 4.4796875 0.15164062 5.25 0.1875 C5.25 0.5175 5.25 0.8475 5.25 1.1875 C1.95 1.5175 -1.35 1.8475 -4.75 2.1875 C-5.54737858 5.3770143 -6.01338369 8.18995153 -6.3125 11.4375 C-6.39628906 12.32953125 -6.48007812 13.2215625 -6.56640625 14.140625 C-6.62699219 14.81609375 -6.68757813 15.4915625 -6.75 16.1875 C-7.08 16.1875 -7.41 16.1875 -7.75 16.1875 C-8.08 13.2175 -8.41 10.2475 -8.75 7.1875 C-9.74 7.6825 -9.74 7.6825 -10.75 8.1875 C-10.43230764 5.24884567 -10.20747951 3.63650766 -8.0625 1.53125 C-5.17179849 -0.14848196 -3.31802027 -0.11850072 0 0 Z " fill="#79828B" transform="translate(63.75,44.8125)"/>
<path d="M0 0 C0.33 0 0.66 0 1 0 C1.03738281 0.68707031 1.07476562 1.37414063 1.11328125 2.08203125 C1.17902344 2.98308594 1.24476562 3.88414063 1.3125 4.8125 C1.37050781 5.70582031 1.42851563 6.59914063 1.48828125 7.51953125 C2.07122445 10.34524829 2.89983712 11.12505566 5 13 C5 13.66 5 14.32 5 15 C0.125 14.125 0.125 14.125 -1 13 C-1.09873816 11.00200428 -1.12971799 9.00042842 -1.125 7 C-1.12757812 5.906875 -1.13015625 4.81375 -1.1328125 3.6875 C-1 1 -1 1 0 0 Z " fill="#3B4959" transform="translate(80,51)"/>
<path d="M0 0 C3.63 0 7.26 0 11 0 C11.33 0.99 11.66 1.98 12 3 C7.71 3 3.42 3 -1 3 C-0.67 2.01 -0.34 1.02 0 0 Z " fill="#465465" transform="translate(58,64)"/>
<path d="M0 0 C0.33 0 0.66 0 1 0 C1.08142927 1.7492214 1.13938541 3.49954542 1.1875 5.25 C1.22230469 6.22453125 1.25710937 7.1990625 1.29296875 8.203125 C0.96075202 11.37468742 0.11327721 12.67040307 -2 15 C-2.99 14.67 -3.98 14.34 -5 14 C-4.67 13.01 -4.34 12.02 -4 11 C-3.34 11 -2.68 11 -2 11 C-1.34 7.37 -0.68 3.74 0 0 Z " fill="#636F7D" transform="translate(74,51)"/>
<path d="M0 0 C0.66 0 1.32 0 2 0 C2.08131463 1.43655854 2.13933559 2.8744483 2.1875 4.3125 C2.23970703 5.51326172 2.23970703 5.51326172 2.29296875 6.73828125 C1.93801608 9.47851584 1.10633718 10.29171079 -1 12 C-1.02687279 10.18757948 -1.04633715 8.37504767 -1.0625 6.5625 C-1.07410156 5.55316406 -1.08570313 4.54382813 -1.09765625 3.50390625 C-1 1 -1 1 0 0 Z " fill="#3F4C5C" transform="translate(54,25)"/>
<path d="M0 0 C0.33 0 0.66 0 1 0 C1.125 7.75 1.125 7.75 0 10 C-0.66 10 -1.32 10 -2 10 C-2.1953125 3.9453125 -2.1953125 3.9453125 -2 2 C-1.34 1.34 -0.68 0.68 0 0 Z " fill="#3D4A5A" transform="translate(55,51)"/>
<path d="M0 0 C2.86724686 0.57344937 3.8614515 0.8614515 6 3 C6 3.99 6 4.98 6 6 C3.13275314 5.42655063 2.1385485 5.1385485 0 3 C0 2.01 0 1.02 0 0 Z " fill="#475464" transform="translate(93,46)"/>
<path d="M0 0 C2 1.375 2 1.375 4 3 C4 3.66 4 4.32 4 5 C1.5625 4.625 1.5625 4.625 -1 4 C-1.33 3.34 -1.66 2.68 -2 2 C-1.34 2 -0.68 2 0 2 C0 1.34 0 0.68 0 0 Z " fill="#475464" transform="translate(81,61)"/>
</svg>
