<?xml version="1.0" encoding="UTF-8"?>
<svg version="1.1" xmlns="http://www.w3.org/2000/svg" width="154" height="82">
<path d="M0 0 C50.82 0 101.64 0 154 0 C154 27.06 154 54.12 154 82 C103.18 82 52.36 82 0 82 C0 54.94 0 27.88 0 0 Z " fill="#FEFEFE" transform="translate(0,0)"/>
<path d="M0 0 C2.23828125 1.41015625 2.23828125 1.41015625 4.3125 3.0625 C5.00988281 3.61035156 5.70726562 4.15820312 6.42578125 4.72265625 C6.94527344 5.14417969 7.46476562 5.56570312 8 6 C8 4.68 8 3.36 8 2 C10.31 2 12.62 2 15 2 C15.63019694 11.17286652 15.63019694 11.17286652 13 14.625 C12.34 15.07875 11.68 15.5325 11 16 C9.68 15.34 8.36 14.68 7 14 C7.1546875 15.4540625 7.1546875 15.4540625 7.3125 16.9375 C7.3480635 21.32959187 5.40427632 24.17380686 3.1796875 27.84375 C1.71796978 30.51549895 1.23250374 32.97745143 1 36 C-2.3 36 -5.6 36 -9 36 C-9 39.63 -9 43.26 -9 47 C-13.29 47 -17.58 47 -22 47 C-22 38.09 -22 29.18 -22 20 C-25.465 22.475 -25.465 22.475 -29 25 C-31.9375 24.8125 -31.9375 24.8125 -34 24 C-33.6640943 21.12732232 -33.44423675 19.45604618 -31.39282227 17.35009766 C-30.70760498 16.87620605 -30.0223877 16.40231445 -29.31640625 15.9140625 C-28.55803467 15.37861816 -27.79966309 14.84317383 -27.01831055 14.29150391 C-26.20789307 13.74155762 -25.39747559 13.19161133 -24.5625 12.625 C-23.74370361 12.05571777 -22.92490723 11.48643555 -22.08129883 10.89990234 C-20.4583522 9.77205654 -18.83203784 8.64903909 -17.20214844 7.53125 C-15.35326481 6.24564045 -13.5468987 4.92917932 -11.7578125 3.5625 C-10.90960938 2.923125 -10.06140625 2.28375 -9.1875 1.625 C-8.47980469 1.08101562 -7.77210937 0.53703125 -7.04296875 -0.0234375 C-4.25165518 -1.35771741 -2.89835412 -0.98869089 0 0 Z " fill="#BE545D" transform="translate(79,22)"/>
<path d="M0 0 C3.23897677 2.58573776 3.79301935 5.22622856 4.6875 9.1875 C4.93886719 10.27417969 5.19023438 11.36085938 5.44921875 12.48046875 C5.63097656 13.31191406 5.81273438 14.14335938 6 15 C6.66 13.35 7.32 11.7 8 10 C10 11 10 11 11.09375 13.1015625 C13.00233671 19.2057493 13.70537243 27.65202959 10.7265625 33.5 C8.0703759 36.60968188 5.79861812 38.82072597 1.609375 39.23828125 C-4.46636205 39.39598481 -8.2645137 39.2497954 -13 35 C-15.83044668 30.75432997 -15.65670302 26.98781577 -15 22 C-13.125 18.8125 -13.125 18.8125 -11 16 C-10.14105243 13.68272936 -9.57830245 11.40959355 -9 9 C-8.2575 9 -7.515 9 -6.75 9 C-3.43169286 7.79334286 -3.19940189 7.01007481 -1.6875 3.9375 C-1.10733879 2.63271056 -0.53914658 1.32226452 0 0 Z " fill="#BD5760" transform="translate(97,30)"/>
<path d="M0 0 C2.89866667 1.2994023 4.95997551 2.55084972 7 5 C7.90582677 7.99411005 8.17987294 10.87833408 8 14 C6.5 16.125 6.5 16.125 4 17 C-2.32727273 16.67272727 -2.32727273 16.67272727 -5 14 C-5.51670383 10.12472131 -5.37735248 8.52342441 -3.0625 5.3125 C-2.381875 4.549375 -1.70125 3.78625 -1 3 C-0.67 2.01 -0.34 1.02 0 0 Z " fill="#FBF3F4" transform="translate(94,51)"/>
<path d="M0 0 C0.33 0 0.66 0 1 0 C1 1.65 1 3.3 1 5 C1.99 5.33 2.98 5.66 4 6 C3.24088921 7.48521677 2.46728766 8.96303425 1.6875 10.4375 C1.25824219 11.26121094 0.82898438 12.08492187 0.38671875 12.93359375 C-1 15 -1 15 -4 16 C-4.66 15.67 -5.32 15.34 -6 15 C-6.0825 16.03125 -6.165 17.0625 -6.25 18.125 C-7 22 -7 22 -9 24.875 C-11.57112557 28.8923837 -11.79192865 32.31839456 -12 37 C-12.33 37 -12.66 37 -13 37 C-14.26614779 31.69722263 -14.49101074 28.14620986 -11.625 23.375 C-11.15964844 22.64152344 -10.69429688 21.90804687 -10.21484375 21.15234375 C-8.477722 18.07467788 -8.22310782 15.49535592 -8 12 C-6.35 12.33 -4.7 12.66 -3 13 C-0.89172945 9.83759418 -0.66182535 8.49342531 -0.375 4.8125 C-0.30023438 3.91144531 -0.22546875 3.01039062 -0.1484375 2.08203125 C-0.09945312 1.39496094 -0.05046875 0.70789063 0 0 Z " fill="#ECC8CC" transform="translate(94,24)"/>
<path d="M0 0 C0.33 0 0.66 0 1 0 C1 1.65 1 3.3 1 5 C1.99 5.33 2.98 5.66 4 6 C2.35 8.97 0.7 11.94 -1 15 C-5 15 -5 15 -7 14 C-6.67 13.34 -6.34 12.68 -6 12 C-5.01 12.33 -4.02 12.66 -3 13 C-0.89172945 9.83759418 -0.66182535 8.49342531 -0.375 4.8125 C-0.30023438 3.91144531 -0.22546875 3.01039062 -0.1484375 2.08203125 C-0.09945312 1.39496094 -0.05046875 0.70789063 0 0 Z " fill="#F2D3D6" transform="translate(94,24)"/>
<path d="M0 0 C0.33 0 0.66 0 1 0 C1 2.64 1 5.28 1 8 C-1.64458379 9.32229189 -3.67761301 9.09677194 -6.625 9.0625 C-7.62789063 9.05347656 -8.63078125 9.04445313 -9.6640625 9.03515625 C-10.43492188 9.02355469 -11.20578125 9.01195313 -12 9 C-8.55549263 6.70366176 -6.06187717 6.45983515 -2 6 C-1.34 4.02 -0.68 2.04 0 0 Z " fill="#C0777E" transform="translate(102,60)"/>
<path d="M0 0 C2 3 2 3 2 6 C2.99 6 3.98 6 5 6 C4.625 8.4375 4.625 8.4375 4 11 C3.01 11.495 3.01 11.495 2 12 C0.86235649 7.73383684 0 4.43513689 0 0 Z " fill="#ECC8CB" transform="translate(100,34)"/>
</svg>
