<?xml version="1.0" encoding="UTF-8"?>
<svg version="1.1" xmlns="http://www.w3.org/2000/svg" width="154" height="82">
<path d="M0 0 C50.82 0 101.64 0 154 0 C154 27.06 154 54.12 154 82 C103.18 82 52.36 82 0 82 C0 54.94 0 27.88 0 0 Z " fill="#FEFEFE" transform="translate(0,0)"/>
<path d="M0 0 C1.625 1.30078125 1.625 1.30078125 3.25 2.875 C9.3552431 8.57049524 17.86783295 9.26077677 25.90625 9.69140625 C28 10 28 10 31 12 C31.83684109 17.02104651 31.42734689 21.78206137 29.75 26.5625 C27.97012206 29.0416157 26.85572721 30.01526648 24 31 C24 31.66 24 32.32 24 33 C21.03 33.495 21.03 33.495 18 34 C17.67 34.99 17.34 35.98 17 37 C16.34 37 15.68 37 15 37 C14.73703125 37.59554687 14.4740625 38.19109375 14.203125 38.8046875 C11.78256142 43.22143013 7.69490865 46.15254567 3.25 48.375 C-3.91559827 49.75299967 -10.7638357 50.09786399 -17.22265625 46.3203125 C-22.99390639 42.03309811 -27.23289932 35.98715671 -29 29 C-29.30795507 24.31113564 -29.24020221 19.69061544 -29 15 C-28.23816406 14.92523438 -27.47632813 14.85046875 -26.69140625 14.7734375 C-18.12076111 13.68204449 -12.13735436 11.13735436 -6 5 C-2.64263592 5.32888464 -0.98511598 6.6952858 1.375 9 C4.47770698 11.80114799 6.72752816 12.79158674 11 13 C10.48050781 12.76925781 9.96101563 12.53851563 9.42578125 12.30078125 C5.75118231 10.58234588 3.21843154 9.22883304 0.375 6.25 C-1.825332 3.80684739 -1.825332 3.80684739 -4.8125 3.25 C-9.01380904 4.2385433 -11.12351505 6.39869813 -14.16796875 9.37109375 C-17.16738136 12.03794888 -19.84542205 12.11818229 -23.6875 12.0625 C-24.89986328 12.04896484 -24.89986328 12.04896484 -26.13671875 12.03515625 C-27.05904297 12.01775391 -27.05904297 12.01775391 -28 12 C-28 11.01 -28 10.02 -28 9 C-27.41992188 8.90203125 -26.83984375 8.8040625 -26.2421875 8.703125 C-20.18893576 7.54441675 -15.7729872 5.7729872 -11.3125 1.3125 C-7.98377583 -2.01622417 -4.15885154 -1.03971289 0 0 Z " fill="#68BF73" transform="translate(83,21)"/>
<path d="M0 0 C1.625 1.30078125 1.625 1.30078125 3.25 2.875 C9.3552431 8.57049524 17.86783295 9.26077677 25.90625 9.69140625 C28 10 28 10 31 12 C31.83684109 17.02104651 31.42734689 21.78206137 29.75 26.5625 C27.97012206 29.0416157 26.85572721 30.01526648 24 31 C24 31.66 24 32.32 24 33 C21.03 33.495 21.03 33.495 18 34 C17.67 34.99 17.34 35.98 17 37 C16.67 36.34 16.34 35.68 16 35 C16.29648438 34.29488281 16.59296875 33.58976562 16.8984375 32.86328125 C18.26193289 29.31916025 18.45278924 25.93667177 18.625 22.1875 C18.66367188 21.49462891 18.70234375 20.80175781 18.7421875 20.08789062 C18.83573568 18.39232985 18.91892364 16.69620288 19 15 C16.36 15 13.72 15 11 15 C11 14.34 11 13.68 11 13 C10.48050781 12.76925781 9.96101563 12.53851563 9.42578125 12.30078125 C5.75118231 10.58234588 3.21843154 9.22883304 0.375 6.25 C-1.825332 3.80684739 -1.825332 3.80684739 -4.8125 3.25 C-9.01380904 4.2385433 -11.12351505 6.39869813 -14.16796875 9.37109375 C-17.16738136 12.03794888 -19.84542205 12.11818229 -23.6875 12.0625 C-24.89986328 12.04896484 -24.89986328 12.04896484 -26.13671875 12.03515625 C-27.05904297 12.01775391 -27.05904297 12.01775391 -28 12 C-28 11.01 -28 10.02 -28 9 C-27.41992188 8.90203125 -26.83984375 8.8040625 -26.2421875 8.703125 C-20.18893576 7.54441675 -15.7729872 5.7729872 -11.3125 1.3125 C-7.98377583 -2.01622417 -4.15885154 -1.03971289 0 0 Z " fill="#F0FBF3" transform="translate(83,21)"/>
<path d="M0 0 C3.2886959 0.95920297 4.18553122 1.88791829 6.5625 4.25 C11.58711838 9.09831598 17.26978505 9.37228577 24 9.875 C24 10.205 24 10.535 24 10.875 C13.24626797 12.4758792 13.24626797 12.4758792 8.5 10.1875 C6 7.875 6 7.875 3.875 5.5625 C2.946875 4.7271875 2.946875 4.7271875 2 3.875 C-1.36492776 4.25434467 -3.35055855 5.71733356 -5.9375 7.8125 C-12.07143777 12.51443392 -16.41482713 13.12356881 -24 12.875 C-23.91621094 14.07898438 -23.83242188 15.28296875 -23.74609375 16.5234375 C-23.6429359 18.09893916 -23.54008734 19.67446109 -23.4375 21.25 C-23.38142578 22.0440625 -23.32535156 22.838125 -23.26757812 23.65625 C-22.88671875 29.6484375 -22.88671875 29.6484375 -24 31.875 C-29.01054627 30.30025689 -32.38047651 27.5348424 -35.125 23.02734375 C-36.15253763 20.49978467 -36.30017813 18.53563384 -36.3125 15.8125 C-36.32925781 14.95527344 -36.34601562 14.09804688 -36.36328125 13.21484375 C-36 10.875 -36 10.875 -34.8046875 9.078125 C-32.36738759 7.4532584 -30.71440503 7.57443877 -27.8125 7.6875 C-26.46091797 7.72810547 -26.46091797 7.72810547 -25.08203125 7.76953125 C-24.39496094 7.80433594 -23.70789062 7.83914062 -23 7.875 C-23 8.535 -23 9.195 -23 9.875 C-15.0436352 9.22523021 -10.44912655 7.99544082 -4.7265625 2.390625 C-3 0.875 -3 0.875 0 0 Z " fill="#F5FCF7" transform="translate(78,23.125)"/>
<path d="M0 0 C1.625 1.30078125 1.625 1.30078125 3.25 2.875 C6.97737668 6.44068683 10.76713974 7.2653536 15.7421875 8.26171875 C16.48726562 8.50535156 17.23234375 8.74898437 18 9 C18.495 10.485 18.495 10.485 19 12 C12.00654987 12.50656782 7.7475414 12.13822981 2 8 C1.319375 7.2575 0.63875 6.515 -0.0625 5.75 C-1.92845302 3.78886684 -1.92845302 3.78886684 -4.75 3.3125 C-9.03451733 4.2188402 -11.08405491 6.36017195 -14.16796875 9.37109375 C-17.16738136 12.03794888 -19.84542205 12.11818229 -23.6875 12.0625 C-24.89986328 12.04896484 -24.89986328 12.04896484 -26.13671875 12.03515625 C-27.05904297 12.01775391 -27.05904297 12.01775391 -28 12 C-28 11.01 -28 10.02 -28 9 C-27.41992188 8.90203125 -26.83984375 8.8040625 -26.2421875 8.703125 C-20.18893576 7.54441675 -15.7729872 5.7729872 -11.3125 1.3125 C-7.98377583 -2.01622417 -4.15885154 -1.03971289 0 0 Z " fill="#71C07C" transform="translate(83,21)"/>
<path d="M0 0 C3.2886959 0.95920297 4.18553122 1.88791829 6.5625 4.25 C11.58711838 9.09831598 17.26978505 9.37228577 24 9.875 C24 10.205 24 10.535 24 10.875 C13.24626797 12.4758792 13.24626797 12.4758792 8.5 10.1875 C6 7.875 6 7.875 3.875 5.5625 C3.25625 5.005625 2.6375 4.44875 2 3.875 C-1.39714896 4.25167133 -3.39374219 5.75741553 -6 7.875 C-9.57529898 10.77993042 -11.92872511 11.97228715 -16.578125 11.75390625 C-17.90070312 11.59728516 -17.90070312 11.59728516 -19.25 11.4375 C-20.58804688 11.28474609 -20.58804688 11.28474609 -21.953125 11.12890625 C-22.62859375 11.04511719 -23.3040625 10.96132813 -24 10.875 C-23.67 9.885 -23.34 8.895 -23 7.875 C-23 8.535 -23 9.195 -23 9.875 C-15.0436352 9.22523021 -10.44912655 7.99544082 -4.7265625 2.390625 C-3 0.875 -3 0.875 0 0 Z " fill="#D4F3DC" transform="translate(78,23.125)"/>
<path d="M0 0 C0 0.99 0 1.98 0 3 C-2.31 3 -4.62 3 -7 3 C-6.84105068 10.3736914 -6.84105068 10.3736914 -4.125 17.0625 C-1.95472777 19.13901904 -1.95472777 19.13901904 1 21 C1 21.66 1 22.32 1 23 C-3.21926474 22.21502051 -5.44690781 20.95081297 -7.875 17.5 C-10.47725779 12.90827415 -11.10240066 8.17209641 -10 3 C-7.22785683 -0.79608795 -4.48414051 -0.25381927 0 0 Z " fill="#91CA9C" transform="translate(52,31)"/>
<path d="M0 0 C0.99 0.33 1.98 0.66 3 1 C7.37283655 2.09909716 11.70116586 2.22550682 16.1875 2.25 C16.87650391 2.25902344 17.56550781 2.26804688 18.27539062 2.27734375 C22.34232351 2.25372168 25.29960646 1.61053398 29 0 C30.32 0 31.64 0 33 0 C33 0.66 33 1.32 33 2 C31.75108386 2.48198463 30.50081192 2.96045677 29.25 3.4375 C28.20585938 3.83775391 28.20585938 3.83775391 27.140625 4.24609375 C18.8835726 7.15414323 11.23321761 6.39637773 2.93359375 3.94921875 C2.29550781 3.63597656 1.65742187 3.32273438 1 3 C0.67 2.01 0.34 1.02 0 0 Z " fill="#E7F7EB" transform="translate(62,55)"/>
<path d="M0 0 C10.89 0 21.78 0 33 0 C32.67 0.66 32.34 1.32 32 2 C26.85154667 3.04691844 21.78993465 3.15323097 16.5625 3.125 C15.85029297 3.12886719 15.13808594 3.13273437 14.40429688 3.13671875 C9.52317515 3.12785204 4.8327382 2.68649945 0 2 C0 1.34 0 0.68 0 0 Z " fill="#DFF8E6" transform="translate(62,40)"/>
<path d="M0 0 C5.625 -0.25 5.625 -0.25 9 2 C9.83684109 7.02104651 9.42734689 11.78206137 7.75 16.5625 C5.97012206 19.0416157 4.85572721 20.01526648 2 21 C2 21.66 2 22.32 2 23 C0.68 23 -0.64 23 -2 23 C-1.505 21.515 -1.505 21.515 -1 20 C-0.360625 19.87625 0.27875 19.7525 0.9375 19.625 C1.618125 19.41875 2.29875 19.2125 3 19 C4.90004903 15.31244839 5.22402605 12.29708087 5.125 8.1875 C5.10695313 7.21167969 5.08890625 6.23585938 5.0703125 5.23046875 C5.04710938 4.49441406 5.02390625 3.75835937 5 3 C3.35 2.67 1.7 2.34 0 2 C0 1.34 0 0.68 0 0 Z " fill="#7EC38A" transform="translate(105,31)"/>
<path d="M0 0 C1.5159375 0.2475 1.5159375 0.2475 3.0625 0.5 C12.95987237 1.73057916 23.13085432 1.30040508 33 0 C33 0.66 33 1.32 33 2 C26.98886808 3.74115545 21.61820421 4.30945909 15.375 4.25 C14.55515625 4.25773437 13.7353125 4.26546875 12.890625 4.2734375 C8.19820552 4.25834933 4.41072063 3.79854628 0 2 C0 1.34 0 0.68 0 0 Z " fill="#E8FBEE" transform="translate(62,47)"/>
<path d="M0 0 C2.5625 -0.375 2.5625 -0.375 6 0 C7.5 1.265625 7.5 1.265625 9.0625 2.875 C13.77771204 7.39818983 19.7445608 7.45441282 26 8 C26 8.33 26 8.66 26 9 C15.24626797 10.6008792 15.24626797 10.6008792 10.5 8.3125 C8.27747771 6.25666688 6.14025931 4.14025931 4 2 C1.86690808 0.76487921 1.86690808 0.76487921 0 0 Z " fill="#D4F4DC" transform="translate(76,25)"/>
<path d="M0 0 C1.32 0 2.64 0 4 0 C4 0.66 4 1.32 4 2 C-3.21150228 5.53505014 -9.13906591 4.99459989 -17 4 C-17 3.67 -17 3.34 -17 3 C-15.85660156 2.86722656 -14.71320313 2.73445313 -13.53515625 2.59765625 C-12.0442438 2.4194969 -10.55335982 2.24109918 -9.0625 2.0625 C-7.93038086 1.93198242 -7.93038086 1.93198242 -6.77539062 1.79882812 C-3.07812542 1.65675901 -3.07812542 1.65675901 0 0 Z " fill="#D0F6DA" transform="translate(91,55)"/>
<path d="M0 0 C1.670625 0.061875 1.670625 0.061875 3.375 0.125 C3.375 1.115 3.375 2.105 3.375 3.125 C1.065 3.455 -1.245 3.785 -3.625 4.125 C-3.955 6.765 -4.285 9.405 -4.625 12.125 C-4.955 12.125 -5.285 12.125 -5.625 12.125 C-5.67895478 10.50036158 -5.71777195 8.87521459 -5.75 7.25 C-5.77320313 6.34507813 -5.79640625 5.44015625 -5.8203125 4.5078125 C-5.47714282 0.32114237 -4.01321687 0.13838679 0 0 Z " fill="#7AC287" transform="translate(48.625,30.875)"/>
<path d="M0 0 C-0.99 1.485 -0.99 1.485 -2 3 C-4.1640625 3.29296875 -4.1640625 3.29296875 -6.625 3.1875 C-7.44226562 3.16042969 -8.25953125 3.13335937 -9.1015625 3.10546875 C-10.04128906 3.05326172 -10.04128906 3.05326172 -11 3 C-11 2.01 -11 1.02 -11 0 C-3.57142857 -1.28571429 -3.57142857 -1.28571429 0 0 Z " fill="#69BA73" transform="translate(66,30)"/>
<path d="M0 0 C0.66 1.32 1.32 2.64 2 4 C0.625 5.5 0.625 5.5 -1 7 C-1.66 7 -2.32 7 -3 7 C-3 7.66 -3 8.32 -3 9 C-4.32 9 -5.64 9 -7 9 C-6.67 8.01 -6.34 7.02 -6 6 C-5.360625 5.87625 -4.72125 5.7525 -4.0625 5.625 C-3.381875 5.41875 -2.70125 5.2125 -2 5 C-0.70339566 2.50965614 -0.70339566 2.50965614 0 0 Z " fill="#86C791" transform="translate(110,45)"/>
<path d="M0 0 C1.15224028 0.92961422 2.29659176 1.8690125 3.4375 2.8125 C4.07558594 3.33457031 4.71367188 3.85664062 5.37109375 4.39453125 C7 6 7 6 8 9 C2.25 7.375 2.25 7.375 0 4 C0 2.68 0 1.36 0 0 Z " fill="#76C583" transform="translate(45,45)"/>
<path d="M0 0 C2.93447681 -0.34934248 5.14367502 -0.51495218 7.734375 1.04296875 C9.375 2.375 9.375 2.375 12 5 C12 5.66 12 6.32 12 7 C8.15199046 6.45028435 6.64690561 4.72962142 4 2 C1.86690808 0.76487921 1.86690808 0.76487921 0 0 Z " fill="#EBFCEF" transform="translate(76,25)"/>
<path d="M0 0 C0 0.66 0 1.32 0 2 C-5.41538462 3.23076923 -5.41538462 3.23076923 -8.375 2.0625 C-8.91125 1.711875 -9.4475 1.36125 -10 1 C-6.59437148 0.22157062 -3.49234244 -0.09978121 0 0 Z " fill="#DEF6E4" transform="translate(95,47)"/>
</svg>
