<?xml version="1.0" encoding="UTF-8"?>
<svg version="1.1" xmlns="http://www.w3.org/2000/svg" width="154" height="82">
<path d="M0 0 C50.82 0 101.64 0 154 0 C154 27.06 154 54.12 154 82 C103.18 82 52.36 82 0 82 C0 54.94 0 27.88 0 0 Z " fill="#FDFDFE" transform="translate(0,0)"/>
<path d="M0 0 C2.23008172 -0.02164656 4.45331286 -0.10186347 6.68188477 -0.18383789 C17.02235725 -0.38045395 17.02235725 -0.38045395 20.30883789 2.30859375 C21.61684706 4.38820068 22.47840952 6.3559222 23.30102539 8.66577148 C23.86047852 9.6106543 24.41993164 10.55553711 24.99633789 11.52905273 C25.95645613 13.17384546 26.91476475 14.81969574 27.87133789 16.46655273 C29.16988493 18.68805244 29.16988493 18.68805244 30.96899414 20.10327148 C32.96176212 22.44082923 32.59460978 24.34754715 32.48852539 27.35327148 C32.44791992 28.84407227 32.44791992 28.84407227 32.40649414 30.36499023 C32.37168945 31.12424805 32.33688477 31.88350586 32.30102539 32.66577148 C29.33102539 32.66577148 26.36102539 32.66577148 23.30102539 32.66577148 C22.97102539 31.01577148 22.64102539 29.36577148 22.30102539 27.66577148 C20.8661273 27.53040374 19.42755432 27.43360005 17.98852539 27.35327148 C17.18801758 27.29526367 16.38750977 27.23725586 15.56274414 27.17749023 C14.81637695 27.33862305 14.07000977 27.49975586 13.30102539 27.66577148 C12.87152588 28.487146 12.44202637 29.30852051 11.99951172 30.15478516 C10.30102539 32.66577148 10.30102539 32.66577148 7.80493164 33.31274414 C6.34893555 33.32120361 6.34893555 33.32120361 4.86352539 33.32983398 C3.80391602 33.3362793 2.74430664 33.34272461 1.65258789 33.34936523 C0.54657227 33.3300293 -0.55944336 33.31069336 -1.69897461 33.29077148 C-2.80499023 33.31010742 -3.91100586 33.32944336 -5.05053711 33.34936523 C-6.11014648 33.34291992 -7.16975586 33.33647461 -8.26147461 33.32983398 C-9.23213867 33.32419434 -10.20280273 33.31855469 -11.20288086 33.31274414 C-13.69897461 32.66577148 -13.69897461 32.66577148 -15.32006836 30.16333008 C-15.77510742 29.33913574 -16.23014648 28.51494141 -16.69897461 27.66577148 C-20.19897461 26.83243815 -20.19897461 26.83243815 -23.69897461 27.66577148 C-24.13854492 28.4972168 -24.57811523 29.32866211 -25.03100586 30.18530273 C-25.58143555 31.00385742 -26.13186523 31.82241211 -26.69897461 32.66577148 C-29.61694336 33.15405273 -29.61694336 33.15405273 -32.88647461 32.97827148 C-33.9731543 32.9331543 -35.05983398 32.88803711 -36.17944336 32.84155273 C-37.42661133 32.75454102 -37.42661133 32.75454102 -38.69897461 32.66577148 C-38.69897461 32.00577148 -38.69897461 31.34577148 -38.69897461 30.66577148 C-38.03897461 30.66577148 -37.37897461 30.66577148 -36.69897461 30.66577148 C-36.69897461 30.00577148 -36.69897461 29.34577148 -36.69897461 28.66577148 C-35.70897461 28.66577148 -34.71897461 28.66577148 -33.69897461 28.66577148 C-33.69897461 26.68577148 -33.69897461 24.70577148 -33.69897461 22.66577148 C-32.70897461 22.66577148 -31.71897461 22.66577148 -30.69897461 22.66577148 C-31.02897461 21.34577148 -31.35897461 20.02577148 -31.69897461 18.66577148 C-30.50272461 18.41827148 -29.30647461 18.17077148 -28.07397461 17.91577148 C-23.61054634 16.30704469 -22.42901259 13.86954443 -20.44897461 9.66577148 C-20.01069336 8.61389648 -19.57241211 7.56202148 -19.12084961 6.47827148 C-15.19855126 -1.28012085 -7.63717748 0.039536 0 0 Z " fill="#64798F" transform="translate(76.698974609375,26.334228515625)"/>
<path d="M0 0 C4.95 0 9.9 0 15 0 C18 6.5 18 6.5 18 11 C12.06 11 6.12 11 0 11 C0 7.37 0 3.74 0 0 Z " fill="#F7F9FA" transform="translate(79,30)"/>
<path d="M0 0 C1.17046875 0.03609375 2.3409375 0.0721875 3.546875 0.109375 C4.43890625 0.15578125 5.3309375 0.2021875 6.25 0.25 C6.25 3.88 6.25 7.51 6.25 11.25 C-0.02 11.25 -6.29 11.25 -12.75 11.25 C-10.27255573 2.57894504 -9.13774911 -0.36550996 0 0 Z " fill="#F9FAFC" transform="translate(69.75,29.75)"/>
<path d="M0 0 C4.46549183 -0.19834763 8.92863025 -0.3431785 13.3972168 -0.43945312 C14.91557479 -0.47959307 16.43362522 -0.5341233 17.95092773 -0.60351562 C30.37452035 -1.15730409 30.37452035 -1.15730409 34.20556641 1.5703125 C35.83611675 3.86315288 36.62326345 5.19895953 37 8 C36.34 10.31 35.68 12.62 35 15 C28.73 15 22.46 15 16 15 C16 14.67 16 14.34 16 14 C21.94 14 27.88 14 34 14 C33.01 10.37 32.02 6.74 31 3 C26.05 3 21.1 3 16 3 C16 2.67 16 2.34 16 2 C10.72 1.67 5.44 1.34 0 1 C0 0.67 0 0.34 0 0 Z " fill="#85919F" transform="translate(63,27)"/>
<path d="M0 0 C2.5625 0.3125 2.5625 0.3125 4.4375 1.5 C5.5625 3.3125 5.5625 3.3125 5.375 5.875 C4.5625 8.3125 4.5625 8.3125 2.5625 10.3125 C0.0625 10.5625 0.0625 10.5625 -2.4375 10.3125 C-4.4375 8.3125 -4.4375 8.3125 -4.6875 5.3125 C-4.37675292 1.58353509 -3.7821044 0.48488518 0 0 Z " fill="#6A7D93" transform="translate(93.4375,53.6875)"/>
<path d="M0 0 C2.5 0.25 2.5 0.25 4.5 2.25 C4.75 5.25 4.75 5.25 4.5 8.25 C2.5 10.25 2.5 10.25 0 10.5 C-2.5 10.25 -2.5 10.25 -4.5 8.25 C-4.75 5.25 -4.75 5.25 -4.5 2.25 C-2.5 0.25 -2.5 0.25 0 0 Z " fill="#687B91" transform="translate(56.5,53.75)"/>
<path d="M0 0 C2.53541298 0.09086451 5.03554784 0.2370945 7.5625 0.4375 C8.62887695 0.51581055 8.62887695 0.51581055 9.71679688 0.59570312 C11.47821999 0.72574107 13.23916173 0.86226897 15 1 C15 1.33 15 1.66 15 2 C10.05 2.33 5.1 2.66 0 3 C-0.66 4.98 -1.32 6.96 -2 9 C-2.66 10.32 -3.32 11.64 -4 13 C2.27 13 8.54 13 15 13 C15 13.33 15 13.66 15 14 C8.4 14 1.8 14 -5 14 C-6 9 -6 9 -5.0390625 6.796875 C-4.57242188 6.12140625 -4.10578125 5.4459375 -3.625 4.75 C-3.16351563 4.06421875 -2.70203125 3.3784375 -2.2265625 2.671875 C-1 1 -1 1 0 0 Z " fill="#818F9F" transform="translate(61,28)"/>
<path d="M0 0 C1.32 0.66 2.64 1.32 4 2 C3.32829194 5.8063457 2.27253436 9.35206816 1 13 C0.34 13 -0.32 13 -1 13 C-2.0070238 7.96488101 -1.97387813 4.76052962 0 0 Z " fill="#7D8C9C" transform="translate(40,32)"/>
</svg>
