<?xml version="1.0" encoding="UTF-8"?>
<svg version="1.1" xmlns="http://www.w3.org/2000/svg" width="154" height="82">
<path d="M0 0 C50.82 0 101.64 0 154 0 C154 27.06 154 54.12 154 82 C103.18 82 52.36 82 0 82 C0 54.94 0 27.88 0 0 Z " fill="#FEFEFE" transform="translate(0,0)"/>
<path d="M0 0 C5.00230198 2.45567552 8.49851535 5.9970307 11 11 C11.07033769 12.87379605 11.0843022 14.75001102 11.0625 16.625 C11.05347656 17.62789062 11.04445312 18.63078125 11.03515625 19.6640625 C11.02355469 20.43492188 11.01195312 21.20578125 11 22 C12.32 22.66 13.64 23.32 15 24 C15.125 26.375 15.125 26.375 15 29 C14.34 29.66 13.68 30.32 13 31 C12.01 31 11.02 31 10 31 C9.9175 31.556875 9.835 32.11375 9.75 32.6875 C8.36159692 36.96840948 5.67972684 39.54684877 2 42 C2 43.32 2 44.64 2 46 C3.64988959 47.58115005 3.64988959 47.58115005 5.8125 48.875 C9.56708557 51.53975896 11.58125472 53.47774941 13 58 C13 60.97 13 63.94 13 67 C1.12 67 -10.76 67 -23 67 C-23 56 -23 56 -21.57421875 53.24609375 C-20.95160156 52.64925781 -20.32898437 52.05242188 -19.6875 51.4375 C-18.76517578 50.50744141 -18.76517578 50.50744141 -17.82421875 49.55859375 C-16 48 -16 48 -13 46 C-12.27034634 43.43717258 -12.27034634 43.43717258 -12 41 C-12.5775 40.773125 -13.155 40.54625 -13.75 40.3125 C-16.6168271 38.64018419 -18.13711036 36.72780269 -20 34 C-20 33.01 -20 32.02 -20 31 C-20.61875 30.87625 -21.2375 30.7525 -21.875 30.625 C-24 30 -24 30 -26 28 C-25.875 26 -25.875 26 -25 24 C-22.9453125 22.875 -22.9453125 22.875 -21 22 C-21.04640625 21.20335938 -21.0928125 20.40671875 -21.140625 19.5859375 C-21.43522232 10.93740192 -21.43522232 10.93740192 -19.375 6.5 C-13.4316219 0.24381252 -8.48265813 -1.25153972 0 0 Z " fill="#A4D68F" transform="translate(84,10)"/>
<path d="M0 0 C8.91 0 17.82 0 27 0 C27 12.78947368 27 12.78947368 23 17 C19.19328676 19.5954863 15.68264203 20.6580522 11.02734375 20.48828125 C7.18306685 19.56239568 4.50907772 16.95664293 2 14 C0 10 0 10 0 0 Z " fill="#F7FCF5" transform="translate(65,31)"/>
<path d="M0 0 C3.4375 1.6875 3.4375 1.6875 6 4 C6.78375 4.70125 7.5675 5.4025 8.375 6.125 C10.75911835 10.34305554 10.33125543 14.26120705 10 19 C9.67 18.34 9.34 17.68 9 17 C-0.57 17 -10.14 17 -20 17 C-20 8 -20 8 -17.75 4.5625 C-12.28281052 -0.53192657 -7.28914063 -0.85692364 0 0 Z " fill="#92D079" transform="translate(84,10)"/>
<path d="M0 0 C0.71285156 0.34933594 1.42570312 0.69867188 2.16015625 1.05859375 C7.56587416 3.62685542 12.0717576 5.36933591 18 6 C20 8 20 8 20 18 C10.43 18 0.86 18 -9 18 C-9 8 -9 8 -7.28515625 5.52734375 C-6.55167969 5.00269531 -5.81820312 4.47804688 -5.0625 3.9375 C-3.96615234 3.11572266 -3.96615234 3.11572266 -2.84765625 2.27734375 C-2.23792969 1.85582031 -1.62820312 1.43429688 -1 1 C-0.67 0.67 -0.34 0.34 0 0 Z " fill="#91D176" transform="translate(70,58)"/>
<path d="M0 0 C0.9075 0.350625 1.815 0.70125 2.75 1.0625 C5.94852773 1.98515223 6.97778441 2.0074052 10 1 C10.33 1.33 10.66 1.66 11 2 C12.66605828 2.0450286 14.33378384 2.03874921 16 2 C19.11257569 2 21.10765685 2.17361624 24 3 C24 5.64 24 8.28 24 11 C23.67 10.34 23.34 9.68 23 9 C13.43 9 3.86 9 -6 9 C-6 6.69 -6 4.38 -6 2 C-4.02 2 -2.04 2 0 2 C0 1.34 0 0.68 0 0 Z " fill="#91D276" transform="translate(70,18)"/>
<path d="M0 0 C0.33 0 0.66 0 1 0 C1 3.63 1 7.26 1 11 C2.32 11.66 3.64 12.32 5 13 C5.125 15.375 5.125 15.375 5 18 C4.34 18.66 3.68 19.32 3 20 C2.01 20 1.02 20 0 20 C-0.0825 20.556875 -0.165 21.11375 -0.25 21.6875 C-1.63840308 25.96840948 -4.32027316 28.54684877 -8 31 C-8.99 32.485 -8.99 32.485 -10 34 C-10 32.68 -10 31.36 -10 30 C-10.66 29.67 -11.32 29.34 -12 29 C-11.071875 28.608125 -10.14375 28.21625 -9.1875 27.8125 C-5.53686621 25.73664941 -4.53501565 24.87793427 -3 21 C-2.67 17.37 -2.34 13.74 -2 10 C-14.87 9.505 -14.87 9.505 -28 9 C-28.33 8.01 -28.66 7.02 -29 6 C-19.76 6 -10.52 6 -1 6 C-0.67 4.02 -0.34 2.04 0 0 Z " fill="#C0E2B2" transform="translate(94,21)"/>
<path d="M0 0 C2.97 0 5.94 0 9 0 C9.185625 0.721875 9.37125 1.44375 9.5625 2.1875 C11.29496092 5.57709745 13.18569629 6.79520655 16.34375 8.7890625 C18 10 18 10 20 13 C20.1953125 15.26171875 20.1953125 15.26171875 20.125 17.6875 C20.10695313 18.49574219 20.08890625 19.30398437 20.0703125 20.13671875 C20.04710938 20.75160156 20.02390625 21.36648437 20 22 C18.68 22 17.36 22 16 22 C15.93941406 21.36191406 15.87882812 20.72382812 15.81640625 20.06640625 C15.69072266 18.82697266 15.69072266 18.82697266 15.5625 17.5625 C15.48128906 16.73878906 15.40007812 15.91507813 15.31640625 15.06640625 C15.21069185 13.01337975 15.21069185 13.01337975 14 12 C12.42242496 11.67864212 10.83755714 11.39272413 9.25 11.125 C5.27563952 10.37340174 2.31230223 9.42902164 -1 7 C-0.67 4.69 -0.34 2.38 0 0 Z " fill="#F5FCF1" transform="translate(74,53)"/>
<path d="M0 0 C0.69480469 0.29648437 1.38960938 0.59296875 2.10546875 0.8984375 C5.14659284 2.05578837 8.15087063 2.86065004 11.3125 3.625 C12.38113281 3.88539062 13.44976562 4.14578125 14.55078125 4.4140625 C15.76314453 4.70410156 15.76314453 4.70410156 17 5 C17 5.66 17 6.32 17 7 C10.99831493 7.51078171 6.12196723 6.28641245 1 3 C0.67 2.01 0.34 1.02 0 0 Z " fill="#E0F6D7" transform="translate(68,63)"/>
<path d="M0 0 C1.32 0.66 2.64 1.32 4 2 C4.125 4.375 4.125 4.375 4 7 C3.34 7.66 2.68 8.32 2 9 C1.01 8.67 0.02 8.34 -1 8 C-1.125 2.25 -1.125 2.25 0 0 Z " fill="#B4E2A0" transform="translate(95,32)"/>
<path d="M0 0 C0.33 0 0.66 0 1 0 C1.625 2.875 1.625 2.875 2 6 C1.34 6.66 0.68 7.32 0 8 C-0.99 8 -1.98 8 -3 8 C-4.88669495 9.30576503 -4.88669495 9.30576503 -6.6875 11 C-7.62142578 11.8353125 -7.62142578 11.8353125 -8.57421875 12.6875 C-9.04472656 13.120625 -9.51523437 13.55375 -10 14 C-8.28697139 10.00580264 -5.94414096 8.15268996 -2.55859375 5.5625 C-0.75081899 3.75019447 -0.39252509 2.49495398 0 0 Z " fill="#ABD49A" transform="translate(72,52)"/>
<path d="M0 0 C1.98 0.495 1.98 0.495 4 1 C4 2.32 4 3.64 4 5 C2.68 5.33 1.36 5.66 0 6 C-1.125 2.25 -1.125 2.25 0 0 Z " fill="#E7F7E0" transform="translate(81,15)"/>
<path d="M0 0 C0.66 0 1.32 0 2 0 C2 2.31 2 4.62 2 7 C0.35 6.67 -1.3 6.34 -3 6 C-2.42655063 3.13275314 -2.1385485 2.1385485 0 0 Z " fill="#C0E2B1" transform="translate(61,32)"/>
<path d="M0 0 C1.32 0.66 2.64 1.32 4 2 C3.34 3.32 2.68 4.64 2 6 C0.68 5.34 -0.64 4.68 -2 4 C-1.34 2.68 -0.68 1.36 0 0 Z " fill="#EBF9E5" transform="translate(74,15)"/>
<path d="M0 0 C1.32 1.32 2.64 2.64 4 4 C3.67 4.66 3.34 5.32 3 6 C1.68 5.67 0.36 5.34 -1 5 C-1 1 -1 1 0 0 Z " fill="#B5E0A3" transform="translate(90,15)"/>
<path d="M0 0 C0.33 0.66 0.66 1.32 1 2 C-1.31 4.97 -3.62 7.94 -6 11 C-6.33 9.68 -6.66 8.36 -7 7 C-6.21625 6.401875 -5.4325 5.80375 -4.625 5.1875 C-1.85425677 3.08914751 -1.85425677 3.08914751 0 0 Z " fill="#E8FDDF" transform="translate(92,45)"/>
<path d="M0 0 C0.66 0.66 1.32 1.32 2 2 C1.625 4.125 1.625 4.125 1 6 C-0.32 6 -1.64 6 -3 6 C-1.125 1.125 -1.125 1.125 0 0 Z " fill="#B4DDA4" transform="translate(67,14)"/>
<path d="M0 0 C0.33 0 0.66 0 1 0 C1.33 4.29 1.66 8.58 2 13 C1.01 13 0.02 13 -1 13 C-0.67 8.71 -0.34 4.42 0 0 Z " fill="#B6DBA7" transform="translate(92,31)"/>
</svg>
