<?xml version="1.0" encoding="UTF-8"?>
<svg version="1.1" xmlns="http://www.w3.org/2000/svg" width="154" height="82">
<path d="M0 0 C50.82 0 101.64 0 154 0 C154 27.06 154 54.12 154 82 C103.18 82 52.36 82 0 82 C0 54.94 0 27.88 0 0 Z " fill="#FEFEFE" transform="translate(0,0)"/>
<path d="M0 0 C1.98 0.66 3.96 1.32 6 2 C4.35 7.28 2.7 12.56 1 18 C8.26 18 15.52 18 23 18 C23 19.98 23 21.96 23 24 C5.84 24 -11.32 24 -29 24 C-29 22.02 -29 20.04 -29 18 C-21.41 18 -13.82 18 -6 18 C-5.67 16.35 -5.34 14.7 -5 13 C-4.18314359 10.71548028 -3.32674957 8.44482583 -2.4375 6.1875 C-1.75494141 4.44533203 -1.75494141 4.44533203 -1.05859375 2.66796875 C-0.70925781 1.78753906 -0.35992187 0.90710937 0 0 Z " fill="#68A3D0" transform="translate(77,42)"/>
<path d="M0 0 C2.77763725 2.53443399 3.00229398 4.02412383 3.36328125 7.8203125 C3.36195989 9.25530756 3.34458043 10.69036296 3.3125 12.125 C3.31733398 13.21748047 3.31733398 13.21748047 3.32226562 14.33203125 C3.26736111 19.73263889 3.26736111 19.73263889 1 22 C-5.85618326 20.07443364 -12.43252132 17.7527517 -19 15 C-18.45661859 10.90652669 -17.24314794 8.53579045 -14.6875 5.3125 C-14.09324219 4.54550781 -13.49898438 3.77851563 -12.88671875 2.98828125 C-8.82005226 -1.29729482 -5.68438529 -1.44693444 0 0 Z " fill="#5E9ED0" transform="translate(90,22)"/>
<path d="M0 0 C7.34664765 5.87731812 7.34664765 5.87731812 9 11 C9.31735571 15.02487639 9.23808098 18.97246341 9 23 C5.7 22.01 2.4 21.02 -1 20 C-0.67 13.4 -0.34 6.8 0 0 Z " fill="#62A1D1" transform="translate(96,26)"/>
<path d="M0 0 C-0.37511719 0.4125 -0.75023438 0.825 -1.13671875 1.25 C-4.97419243 5.58044889 -8.03602222 10.03097843 -11 15 C-15.455 14.01 -15.455 14.01 -20 13 C-20.33 11.68 -20.66 10.36 -21 9 C-13.91545441 2.42526042 -9.75320748 -0.3306172 0 0 Z " fill="#62A0D0" transform="translate(79,20)"/>
<path d="M0 0 C1.98 0 3.96 0 6 0 C6 0.66 6 1.32 6 2 C6.99 2.33 7.98 2.66 9 3 C8.113125 3.495 7.22625 3.99 6.3125 4.5 C2.27323365 7.16419695 0.33882057 10.87316805 -2 15 C-2.99 16.485 -2.99 16.485 -4 18 C-4 17.34 -4 16.68 -4 16 C-4.66 16 -5.32 16 -6 16 C-4.34966761 10.71893635 -0.90667286 5.90667286 3 2 C2.01 1.34 1.02 0.68 0 0 Z " fill="#DFF0F7" transform="translate(74,19)"/>
<path d="M0 0 C2.53229508 2.53229508 2.42944077 3.85827668 2.75 7.375 C2.89695312 8.80972656 2.89695312 8.80972656 3.046875 10.2734375 C2.99778678 13.12873561 2.48085988 14.59645051 1 17 C-0.65 16.67 -2.3 16.34 -4 16 C-4 15.34 -4 14.68 -4 14 C-3.01 13.67 -2.02 13.34 -1 13 C-0.67 8.71 -0.34 4.42 0 0 Z " fill="#D4ECF8" transform="translate(93,29)"/>
<path d="M0 0 C1.32 0 2.64 0 4 0 C4 3.96 4 7.92 4 12 C3.67 12 3.34 12 3 12 C2 8 1 4 0 0 Z " fill="#EEF7FA" transform="translate(92,25)"/>
<path d="M0 0 C0.66 0.33 1.32 0.66 2 1 C0.02 3.31 -1.96 5.62 -4 8 C-4.33 7.01 -4.66 6.02 -5 5 C-3.35 3.35 -1.7 1.7 0 0 Z " fill="#6B9EC6" transform="translate(63,24)"/>
<path d="M0 0 C1.32 1.32 2.64 2.64 4 4 C3.01 4 2.02 4 1 4 C1 6.31 1 8.62 1 11 C0.67 11 0.34 11 0 11 C0 7.37 0 3.74 0 0 Z " fill="#8FB6D3" transform="translate(96,26)"/>
</svg>
