<?xml version="1.0" encoding="UTF-8"?>
<svg version="1.1" xmlns="http://www.w3.org/2000/svg" width="154" height="82">
<path d="M0 0 C50.82 0 101.64 0 154 0 C154 27.06 154 54.12 154 82 C103.18 82 52.36 82 0 82 C0 54.94 0 27.88 0 0 Z " fill="#FEFEFE" transform="translate(0,0)"/>
<path d="M0 0 C17.82 0 35.64 0 54 0 C54 7.92 54 15.84 54 24 C46.63086786 24.04583427 39.26222737 24.08568307 31.89306641 24.10986328 C29.38458585 24.11994011 26.87611708 24.13360179 24.36767578 24.15087891 C20.76852512 24.17505337 17.16952933 24.18646612 13.5703125 24.1953125 C12.44319855 24.20563507 11.31608459 24.21595764 10.15481567 24.22659302 C9.11388763 24.22674408 8.07295959 24.22689514 7.00048828 24.22705078 C6.08115509 24.231492 5.1618219 24.23593323 4.21463013 24.24050903 C2 24 2 24 0 22 C0 14.74 0 7.48 0 0 Z " fill="#78E086" transform="translate(52,43)"/>
<path d="M0 0 C0.8807872 0.00142502 1.7615744 0.00285004 2.66905212 0.00431824 C3.66671097 0.00124161 4.66436981 -0.00183502 5.69226074 -0.00500488 C6.77249008 0.00218063 7.85271942 0.00936615 8.96568298 0.01676941 C10.622584 0.01745674 10.622584 0.01745674 12.31295776 0.01815796 C14.65074232 0.02118269 16.98852481 0.02907552 19.32627869 0.04142761 C22.91904276 0.05967982 26.51154928 0.06193738 30.10435486 0.06169128 C32.37063314 0.06660642 34.63690967 0.07243472 36.90318298 0.07926941 C37.98543655 0.08038223 39.06769012 0.08149506 40.18273926 0.0826416 C41.17724594 0.08902145 42.17175262 0.09540131 43.19639587 0.10197449 C44.07638748 0.10578629 44.95637909 0.10959808 45.86303711 0.11352539 C47.86802673 0.24723816 47.86802673 0.24723816 48.86802673 1.24723816 C48.86802673 4.21723816 48.86802673 7.18723816 48.86802673 10.24723816 C31.37802673 10.24723816 13.88802673 10.24723816 -4.13197327 10.24723816 C-4.13197327 0.4791718 -4.13197327 0.4791718 0 0 Z " fill="#78DC84" transform="translate(56.13197326660156,27.752761840820313)"/>
<path d="M0 0 C7.59 0 15.18 0 23 0 C23 0.99 23 1.98 23 3 C15.41 3 7.82 3 0 3 C0 2.01 0 1.02 0 0 Z " fill="#EEFEF1" transform="translate(67,57)"/>
</svg>
