<?xml version="1.0" encoding="UTF-8"?>
<svg version="1.1" xmlns="http://www.w3.org/2000/svg" width="154" height="82">
<path d="M0 0 C50.82 0 101.64 0 154 0 C154 27.06 154 54.12 154 82 C103.18 82 52.36 82 0 82 C0 54.94 0 27.88 0 0 Z " fill="#FEFEFE" transform="translate(0,0)"/>
<path d="M0 0 C1.15158348 0.00607269 1.15158348 0.00607269 2.32643127 0.01226807 C3.51010033 0.00939789 3.51010033 0.00939789 4.71768188 0.00646973 C6.38796812 0.00510774 8.05826494 0.00880517 9.72853088 0.01715088 C12.28549522 0.02783627 14.8417547 0.01726368 17.3986969 0.00445557 C19.02044324 0.00577744 20.64218915 0.0083404 22.26393127 0.01226807 C23.41247841 0.00619537 23.41247841 0.00619537 24.58422852 0 C28.37808004 0.03349507 30.12751786 0.12184662 33.36158752 2.27789307 C33.62818935 5.18624191 33.70937876 7.87927575 33.65455627 10.78570557 C33.65031143 11.62632538 33.64606659 12.46694519 33.64169312 13.33303833 C33.62487285 16.023313 33.58721534 18.71284406 33.54908752 21.40289307 C33.53404498 23.22449685 33.52035583 25.04611234 33.5080719 26.86773682 C33.47495847 31.3380763 33.4231539 35.80785853 33.36158752 40.27789307 C30.38964902 39.15337579 28.02718065 38.05495515 25.36158752 36.27789307 C22.09593011 35.94039359 22.09593011 35.94039359 18.35768127 35.93414307 C17.67859207 35.91952026 16.99950287 35.90489746 16.29983521 35.88983154 C13.397512 35.82760837 10.49497875 35.78790146 7.59230042 35.74615479 C5.47219876 35.71246849 3.35255214 35.66735457 1.23268127 35.62164307 C-0.03648132 35.60295166 -1.30564392 35.58426025 -2.61326599 35.56500244 C-5.63841248 35.27789307 -5.63841248 35.27789307 -7.63841248 33.27789307 C-7.89720154 30.23687744 -7.89720154 30.23687744 -7.90403748 26.37164307 C-7.90595093 25.69113892 -7.90786438 25.01063477 -7.90983582 24.30950928 C-7.91119711 22.8704186 -7.90750453 21.43131563 -7.89915466 19.99224854 C-7.88845375 17.7864022 -7.89905119 15.58137025 -7.91184998 13.37554932 C-7.91052837 11.9784121 -7.90796595 10.58127539 -7.90403748 9.18414307 C-7.90178162 7.90861572 -7.89952576 6.63308838 -7.89720154 5.31890869 C-7.43208159 -0.14668947 -4.88851402 0.04335097 0 0 Z " fill="#4CA1DC" transform="translate(69.63841247558594,23.72210693359375)"/>
<path d="M0 0 C0.99 0 1.98 0 3 0 C3.01981934 0.62567871 3.03963867 1.25135742 3.06005859 1.89599609 C3.15514226 4.72276519 3.26488746 7.54877815 3.375 10.375 C3.4059375 11.35984375 3.436875 12.3446875 3.46875 13.359375 C3.50742187 14.30039062 3.54609375 15.24140625 3.5859375 16.2109375 C3.6173584 17.08024902 3.6487793 17.94956055 3.68115234 18.84521484 C3.81229433 21.20961794 3.81229433 21.20961794 6 23 C8.91188245 23.37268887 8.91188245 23.37268887 12.3203125 23.4140625 C13.57714844 23.45273437 14.83398438 23.49140625 16.12890625 23.53125 C17.44761719 23.5621875 18.76632813 23.593125 20.125 23.625 C21.46486918 23.66318029 22.80471383 23.70223206 24.14453125 23.7421875 C27.42954619 23.8367203 30.71455138 23.92227156 34 24 C33.125 27.875 33.125 27.875 32 29 C29.99791497 29.09743241 27.99271732 29.13204743 25.98828125 29.140625 C24.75529297 29.15996094 23.52230469 29.17929688 22.25195312 29.19921875 C19.64533511 29.23281918 17.03847388 29.25128236 14.43164062 29.25390625 C13.19220703 29.27839844 11.95277344 29.30289063 10.67578125 29.328125 C9.54052002 29.3374707 8.40525879 29.34681641 7.2355957 29.35644531 C2.91387765 30.21602796 1.16357997 31.9892312 -2 35 C-2.04937279 30.33692986 -2.08570627 25.67401127 -2.10986328 21.01074219 C-2.11993188 19.42380117 -2.13358767 17.83687875 -2.15087891 16.25 C-2.17509001 13.97130753 -2.18647422 11.69285994 -2.1953125 9.4140625 C-2.20563507 8.70255035 -2.21595764 7.99103821 -2.22659302 7.25796509 C-2.22699422 5.50368335 -2.12202209 3.75003291 -2 2 C-1.34 1.34 -0.68 0.68 0 0 Z " fill="#5CA6D6" transform="translate(56,37)"/>
<path d="M0 0 C1.51289503 0.00031716 3.0258126 0.01164445 4.53857422 0.03173828 C5.33480194 0.03456818 6.13102966 0.03739807 6.9513855 0.04031372 C9.49882935 0.05152438 12.04592383 0.07663016 14.59326172 0.10205078 C16.31851706 0.11207945 18.04377791 0.1212055 19.76904297 0.12939453 C24.00225086 0.15146656 28.23519702 0.18600212 32.46826172 0.22705078 C32.46826172 0.55705078 32.46826172 0.88705078 32.46826172 1.22705078 C31.19764893 1.26463501 31.19764893 1.26463501 29.90136719 1.30297852 C26.73670614 1.39852935 23.57218609 1.49773644 20.40771484 1.59936523 C19.04219995 1.64248166 17.6766392 1.68417146 16.31103516 1.72436523 C14.33988982 1.78263632 12.36891504 1.84658814 10.39794922 1.91064453 C9.21442871 1.94730225 8.0309082 1.98395996 6.81152344 2.02172852 C3.63268453 2.21695296 0.59645723 2.6418158 -2.53173828 3.22705078 C-2.55679443 3.95819092 -2.58185059 4.68933105 -2.60766602 5.44262695 C-2.7239647 8.76676496 -2.84653756 12.09064319 -2.96923828 15.41455078 C-3.02821289 17.1402832 -3.02821289 17.1402832 -3.08837891 18.90087891 C-3.13027344 20.01269531 -3.17216797 21.12451172 -3.21533203 22.27001953 C-3.25198975 23.29119873 -3.28864746 24.31237793 -3.32641602 25.36450195 C-3.52013891 28.06533541 -3.93625782 30.58871207 -4.53173828 33.22705078 C-4.86173828 33.22705078 -5.19173828 33.22705078 -5.53173828 33.22705078 C-5.58111977 28.84881161 -5.61744868 24.47071932 -5.64160156 20.09228516 C-5.65166871 18.60234758 -5.66532346 17.11242981 -5.68261719 15.62255859 C-5.70683481 13.4828605 -5.71821392 11.34342325 -5.72705078 9.20361328 C-5.74276123 7.27122803 -5.74276123 7.27122803 -5.75878906 5.29980469 C-5.42363126 0.7640024 -4.49492482 0.28897277 0 0 Z " fill="#699EC0" transform="translate(67.53173828125,23.77294921875)"/>
<path d="M0 0 C0.33 0 0.66 0 1 0 C1.02505615 0.87325928 1.0501123 1.74651855 1.07592773 2.64624023 C1.17087709 5.87602552 1.27012029 9.10564154 1.37231445 12.33520508 C1.41571434 13.73489199 1.45738564 15.13463359 1.49731445 16.53442383 C1.55489445 18.54261495 1.61914 20.55061149 1.68359375 22.55859375 C1.72025146 23.76829834 1.75690918 24.97800293 1.79467773 26.22436523 C1.68938266 28.90705456 1.68938266 28.90705456 3 30 C5.28988781 30.15888092 7.58443441 30.25138073 9.87890625 30.31640625 C10.5655687 30.33718735 11.25223114 30.35796844 11.95970154 30.37937927 C14.16052935 30.44494143 16.36147975 30.50379015 18.5625 30.5625 C20.05144514 30.60567892 21.54037773 30.649293 23.02929688 30.69335938 C26.68606553 30.8006293 30.34297318 30.90187772 34 31 C34 31.33 34 31.66 34 32 C29.35586181 32.21712953 24.71147389 32.4139689 20.06567383 32.59204102 C18.48536197 32.65547413 16.90526245 32.7244491 15.32543945 32.79907227 C13.05452988 32.90537623 10.78360256 32.99172961 8.51171875 33.07421875 C7.80536789 33.11157639 7.09901703 33.14893402 6.3712616 33.18742371 C3.52352018 33.27472552 1.50790704 33.315726 -0.95117188 31.78710938 C-2.30084404 29.48738865 -2.34380463 27.99244218 -2.29296875 25.33203125 C-2.28330078 24.43935547 -2.27363281 23.54667969 -2.26367188 22.62695312 C-2.23853516 21.69818359 -2.21339844 20.76941406 -2.1875 19.8125 C-2.17396484 18.87212891 -2.16042969 17.93175781 -2.14648438 16.96289062 C-2.11113096 14.64134962 -2.06178674 12.32096347 -2 10 C-1.67 10 -1.34 10 -1 10 C-0.67 6.7 -0.34 3.4 0 0 Z " fill="#E4F8FC" transform="translate(61,28)"/>
</svg>
