<?xml version="1.0" encoding="UTF-8"?>
<svg version="1.1" xmlns="http://www.w3.org/2000/svg" width="154" height="82">
<path d="M0 0 C50.82 0 101.64 0 154 0 C154 27.06 154 54.12 154 82 C103.18 82 52.36 82 0 82 C0 54.94 0 27.88 0 0 Z " fill="#FEFEFD" transform="translate(0,0)"/>
<path d="M0 0 C4.29 0 8.58 0 13 0 C11.50748294 4.47755118 9.99752948 8.22222494 7.875 12.375 C7.33617188 13.43460938 6.79734375 14.49421875 6.2421875 15.5859375 C5.83226563 16.38257812 5.42234375 17.17921875 5 18 C7.64 18 10.28 18 13 18 C9.22127275 25.20717606 4.81269751 31.87477422 0.1875 38.5625 C-0.50537109 39.57119141 -1.19824219 40.57988281 -1.91210938 41.61914062 C-3.60452743 44.08190069 -5.30053932 46.54209704 -7 49 C-8.22243064 44.97124243 -7.50180042 43.16344058 -5.75 39.3125 C-3.52681264 34.26543119 -1.66427923 29.25561861 0 24 C-2.64 24 -5.28 24 -8 24 C-7.40630285 15.49034085 -3.77783887 7.55567775 0 0 Z " fill="#E6CE53" transform="translate(68,26)"/>
<path d="M0 0 C3.3 0 6.6 0 10 0 C8.16508812 4.74018901 6.08058541 9.36413251 4 14 C5.98 14 7.96 14 10 14 C5.63068771 22.33592299 0.84371108 30.45579488 -6 37 C-4.60061654 30.70277443 -2.50710309 24.93915684 0 19 C-1.98 19 -3.96 19 -6 19 C-5.52877252 12.0886636 -2.79363994 6.27795839 0 0 Z " fill="#E5CE55" transform="translate(92,18)"/>
<path d="M0 0 C1.36385243 4.3957258 0.65641221 7.76791016 -1 12 C-3.125 14.5 -3.125 14.5 -5 16 C-3.71291613 10.45563871 -2.08135307 5.29798964 0 0 Z " fill="#E4D476" transform="translate(91,39)"/>
</svg>
