<?xml version="1.0" encoding="UTF-8"?>
<svg version="1.1" xmlns="http://www.w3.org/2000/svg" width="154" height="82">
<path d="M0 0 C50.82 0 101.64 0 154 0 C154 27.06 154 54.12 154 82 C103.18 82 52.36 82 0 82 C0 54.94 0 27.88 0 0 Z " fill="#FEFEFE" transform="translate(0,0)"/>
<path d="M0 0 C2.9375 0.8125 2.9375 0.8125 4.9375 2.8125 C5.16200001 5.63440852 5.2656608 8.35526681 5.2734375 11.1796875 C5.2800943 12.01082062 5.2867511 12.84195374 5.29360962 13.69827271 C5.30374422 15.4584939 5.30842639 17.21875357 5.30810547 18.97900391 C5.312472 21.67024294 5.34876253 24.35983333 5.38671875 27.05078125 C5.39258812 28.76041105 5.39655671 30.47004866 5.3984375 32.1796875 C5.41280853 32.98397186 5.42717957 33.78825623 5.44198608 34.61691284 C5.41238212 38.24463334 5.26533896 40.37175491 3.06884766 43.32470703 C0.9375 44.8125 0.9375 44.8125 -1.625 45.25 C-4.52662153 44.72919614 -5.10711872 43.93082972 -7.0625 41.8125 C-7.8875 41.503125 -8.7125 41.19375 -9.5625 40.875 C-12.57128919 39.59626459 -13.34769441 38.5711003 -15.0625 35.8125 C-15.41570313 35.27109375 -15.76890625 34.7296875 -16.1328125 34.171875 C-18.33136752 30.63573755 -19.78042873 28.00041758 -19.0625 23.8125 C-18.4025 23.1525 -17.7425 22.4925 -17.0625 21.8125 C-16.75297191 19.90208582 -16.75297191 19.90208582 -16.6875 17.8125 C-16.48046875 15.65625 -16.48046875 15.65625 -16.0625 13.8125 C-14 12.3125 -14 12.3125 -12.0625 11.8125 C-12.124375 11.049375 -12.18625 10.28625 -12.25 9.5 C-12.0625 6.8125 -12.0625 6.8125 -10.75 5.0625 C-9.0625 3.8125 -9.0625 3.8125 -6.0625 2.8125 C-5.4128125 2.008125 -5.4128125 2.008125 -4.75 1.1875 C-3.0625 -0.1875 -3.0625 -0.1875 0 0 Z " fill="#5C55B1" transform="translate(68.0625,25.1875)"/>
<path d="M0 0 C5.45802119 1.67939113 9.17680366 4.14966149 12.0625 9.125 C12.454375 10.07375 12.84625 11.0225 13.25 12 C14.24 13.485 14.24 13.485 15.25 15 C15.61141955 17.32914823 15.94699525 19.66253478 16.25 22 C16.58 22.33 16.91 22.66 17.25 23 C17.39115161 25.67058851 17.29247107 28.32432238 17.25 31 C15.27 31.99 15.27 31.99 13.25 33 C13.3325 33.763125 13.415 34.52625 13.5 35.3125 C13.25 38 13.25 38 11.6875 39.5625 C10.883125 40.036875 10.07875 40.51125 9.25 41 C8.71761719 41.36480469 8.18523437 41.72960937 7.63671875 42.10546875 C4.47463355 44.15977244 2.79784151 45.01033663 -1.0625 44.9375 C-3.75 44 -3.75 44 -5.75 41 C-5.95819682 38.1337312 -6.05402194 35.36698669 -6.05078125 32.5 C-6.05506638 31.66791016 -6.0593515 30.83582031 -6.06376648 29.97851562 C-6.06950693 28.22006134 -6.07001213 26.46158331 -6.06567383 24.703125 C-6.06251175 22.01000601 -6.08598298 19.31798332 -6.11132812 16.625 C-6.11360091 14.91666805 -6.11430471 13.20833315 -6.11328125 11.5 C-6.122491 10.69369141 -6.13170074 9.88738281 -6.14118958 9.05664062 C-6.09462076 3.4427831 -6.09462076 3.4427831 -4.39860535 1.26367188 C-2.75 0 -2.75 0 0 0 Z " fill="#5952B2" transform="translate(81.75,25)"/>
<path d="M0 0 C-1.875 3.875 -1.875 3.875 -3 5 C-3.16003488 7.66426685 -3.25942889 10.30560428 -3.31640625 12.97265625 C-3.33718735 13.77029892 -3.35796844 14.56794159 -3.37937927 15.38975525 C-3.44496158 17.94724611 -3.50379967 20.5048428 -3.5625 23.0625 C-3.60567699 24.79232882 -3.64929101 26.52214679 -3.69335938 28.25195312 C-3.80065172 32.5011926 -3.90189426 36.7505389 -4 41 C-4.33 41 -4.66 41 -5 41 C-5.0741205 35.64317867 -5.12858776 30.28665538 -5.16479492 24.92944336 C-5.1798876 23.10679933 -5.20036395 21.28419164 -5.22631836 19.46166992 C-5.26268103 16.842845 -5.27972124 14.22449993 -5.29296875 11.60546875 C-5.30845261 10.78974899 -5.32393646 9.97402924 -5.33988953 9.1335907 C-5.34159013 3.42550661 -5.34159013 3.42550661 -3.60371399 1.26069641 C-2 0 -2 0 0 0 Z " fill="#726DA4" transform="translate(81,25)"/>
</svg>
