<?xml version="1.0" encoding="UTF-8"?>
<svg version="1.1" xmlns="http://www.w3.org/2000/svg" width="154" height="82">
<path d="M0 0 C50.82 0 101.64 0 154 0 C154 27.06 154 54.12 154 82 C103.18 82 52.36 82 0 82 C0 54.94 0 27.88 0 0 Z " fill="#FEFEFE" transform="translate(0,0)"/>
<path d="M0 0 C9.9 0 19.8 0 30 0 C30.495 1.485 30.495 1.485 31 3 C32.98045559 3.66179847 32.98045559 3.66179847 35 4 C36 5 36 5 36.11352539 6.94946289 C36.10828857 7.7821167 36.10305176 8.61477051 36.09765625 9.47265625 C36.09443359 10.37177734 36.09121094 11.27089844 36.08789062 12.19726562 C36.07532227 13.61555664 36.07532227 13.61555664 36.0625 15.0625 C36.05798828 16.01189453 36.05347656 16.96128906 36.04882812 17.93945312 C36.0370011 20.29303065 36.02052025 22.64648477 36 25 C35.34 25 34.68 25 34 25 C34 25.99 34 26.98 34 28 C34.598125 28.2475 35.19625 28.495 35.8125 28.75 C38.51690582 30.29537476 39.56742238 31.20647365 41 34 C41.80437978 39.70674845 41.16238638 44.0807323 38 49 C36.5 50.875 36.5 50.875 35 52 C34.01 52 33.02 52 32 52 C32 52.66 32 53.32 32 54 C17.48 54 2.96 54 -12 54 C-12 40.14 -12 26.28 -12 12 C-8.04 12 -4.08 12 0 12 C0 8.04 0 4.08 0 0 Z " fill="#FDFCF3" transform="translate(64,18)"/>
<path d="M0 0 C3.96930989 -0.02465881 7.93859034 -0.04284023 11.90795898 -0.05493164 C13.25920386 -0.05997057 14.61044326 -0.06680177 15.96166992 -0.07543945 C17.90020434 -0.08752419 19.838778 -0.09269828 21.77734375 -0.09765625 C23.52905884 -0.10551147 23.52905884 -0.10551147 25.31616211 -0.11352539 C28 0 28 0 29 1 C29.08700342 2.63472882 29.10701063 4.27314055 29.09765625 5.91015625 C29.09443359 6.89951172 29.09121094 7.88886719 29.08789062 8.90820312 C29.07532227 10.46958008 29.07532227 10.46958008 29.0625 12.0625 C29.05798828 13.10728516 29.05347656 14.15207031 29.04882812 15.22851562 C29.03699927 17.81903454 29.01906319 20.40952422 29 23 C25.7 23.33 22.4 23.66 19 24 C19 22.02 19 20.04 19 18 C17.02 18 15.04 18 13 18 C12.67 16.02 12.34 14.04 12 12 C9.36 11.67 6.72 11.34 4 11 C4 12.65 4 14.3 4 16 C2.02 16 0.04 16 -2 16 C-2 19.63 -2 23.26 -2 27 C3.61 27 9.22 27 15 27 C14.01 28.65 13.02 30.3 12 32 C9.21400429 32.38060051 7.06627249 32.47962905 4.3125 32.3125 C3.61060547 32.28994141 2.90871094 32.26738281 2.18554688 32.24414062 C0.4561167 32.18531647 -1.27221438 32.09563389 -3 32 C-2.67 32.66 -2.34 33.32 -2 34 C1.04581269 34.46954261 1.04581269 34.46954261 4.5625 34.625 C5.76003906 34.69976562 6.95757812 34.77453125 8.19140625 34.8515625 C9.11824219 34.90054688 10.04507813 34.94953125 11 35 C11 35.99 11 36.98 11 38 C6.38 38 1.76 38 -3 38 C-3 38.99 -3 39.98 -3 41 C1.29 41 5.58 41 10 41 C10 41.99 10 42.98 10 44 C9.14535156 44.04898438 8.29070312 44.09796875 7.41015625 44.1484375 C6.30542969 44.22320312 5.20070313 44.29796875 4.0625 44.375 C2.96035156 44.44460937 1.85820313 44.51421875 0.72265625 44.5859375 C-0.17582031 44.72257812 -1.07429688 44.85921875 -2 45 C-2.33 45.66 -2.66 46.32 -3 47 C-1.97519531 46.91878906 -0.95039062 46.83757812 0.10546875 46.75390625 C1.46605631 46.68822271 2.82674077 46.6245253 4.1875 46.5625 C4.86103516 46.50384766 5.53457031 46.44519531 6.22851562 46.38476562 C8.23046875 46.31640625 8.23046875 46.31640625 12 47 C13.65 49.31 15.3 51.62 17 54 C7.43 54 -2.14 54 -12 54 C-12 40.14 -12 26.28 -12 12 C-8.04 12 -4.08 12 0 12 C0 8.04 0 4.08 0 0 Z " fill="#E1C85A" transform="translate(64,18)"/>
<path d="M0 0 C3.87062746 1.93531373 7.0831623 4.05983361 9 8 C9.78695408 13.71634703 9.16973412 18.06930248 6 23 C4.5 24.875 4.5 24.875 3 26 C2.01 26 1.02 26 0 26 C0 26.66 0 27.32 0 28 C-4.65422701 28.37233816 -8.05195253 28.46507989 -12.3125 26.375 C-15.83710435 23.26023336 -18.54048449 20.61173611 -19.3828125 15.82421875 C-19.65577548 10.41045291 -18.60983749 7.21147707 -15 3 C-10.4763932 -1.10257846 -5.82939631 -0.76880444 0 0 Z " fill="#E2CA5F" transform="translate(96,44)"/>
<path d="M0 0 C0.66 0.99 1.32 1.98 2 3 C1.505 3.639375 1.01 4.27875 0.5 4.9375 C-1.5174257 9.05641081 -1.73201047 12.48858764 -1 17 C0.89114432 20.52144115 3.0316846 23.32851614 6 26 C4.68 26.33 3.36 26.66 2 27 C1.484375 26.030625 0.96875 25.06125 0.4375 24.0625 C-1.79852533 21.26746834 -3.05552619 20.9906078 -6.671875 20.37890625 C-10.44652184 20.08639929 -14.2149754 20.00952207 -18 20 C-17.505 18.515 -17.505 18.515 -17 17 C-13.04 17 -9.08 17 -5 17 C-5 16.01 -5 15.02 -5 14 C-9.29 14 -13.58 14 -18 14 C-18 13.01 -18 12.02 -18 11 C-13.38 11 -8.76 11 -4 11 C-4 10.01 -4 9.02 -4 8 C-8.29 8 -12.58 8 -17 8 C-17.33 7.01 -17.66 6.02 -18 5 C-13.05 5 -8.1 5 -3 5 C-2.34 3.68 -1.68 2.36 -1 1 C-0.67 0.67 -0.34 0.34 0 0 Z " fill="#FAF5D9" transform="translate(79,45)"/>
<path d="M0 0 C0.66 0 1.32 0 2 0 C2.33 0.99 2.66 1.98 3 3 C4.98045559 3.66179847 4.98045559 3.66179847 7 4 C8 5 8 5 8.11352539 6.94946289 C8.10828857 7.7821167 8.10305176 8.61477051 8.09765625 9.47265625 C8.09443359 10.37177734 8.09121094 11.27089844 8.08789062 12.19726562 C8.07951172 13.14279297 8.07113281 14.08832031 8.0625 15.0625 C8.05798828 16.01189453 8.05347656 16.96128906 8.04882812 17.93945312 C8.0370011 20.29303065 8.02052025 22.64648477 8 25 C7.34 25 6.68 25 6 25 C6 25.66 6 26.32 6 27 C4.06183265 26.8858134 2.12444901 26.75826577 0.1875 26.625 C-0.89144531 26.55539063 -1.97039062 26.48578125 -3.08203125 26.4140625 C-6 26 -6 26 -9 24 C-6 23 -6 23 1 23 C0.67 15.41 0.34 7.82 0 0 Z " fill="#FAF7DD" transform="translate(92,18)"/>
<path d="M0 0 C3.96 0 7.92 0 12 0 C12 0.33 12 0.66 12 1 C8.37 1 4.74 1 1 1 C1 14.2 1 27.4 1 41 C8.92 41 16.84 41 25 41 C24.505 38.525 24.505 38.525 24 36 C25.68762851 37.6454378 27.3540349 39.31288577 29 41 C29 41.33 29 41.66 29 42 C19.43 42 9.86 42 0 42 C0 28.14 0 14.28 0 0 Z " fill="#D9CA80" transform="translate(52,30)"/>
<path d="M0 0 C0.99 0 1.98 0 3 0 C3 3.63 3 7.26 3 11 C4.65 11 6.3 11 8 11 C8 11.33 8 11.66 8 12 C2.39 12 -3.22 12 -9 12 C-8.01 11.34 -7.02 10.68 -6 10 C-6.33 9.67 -6.66 9.34 -7 9 C-7.04063832 7.33382885 -7.042721 5.66611905 -7 4 C-5.35 4 -3.7 4 -2 4 C-2 5.65 -2 7.3 -2 9 C-1.34 9 -0.68 9 0 9 C0 6.03 0 3.06 0 0 Z " fill="#F8F5E1" transform="translate(71,33)"/>
<path d="M0 0 C2.33294775 -0.04241723 4.66702567 -0.04092937 7 0 C8 1 8 1 8.0625 3.5625 C8.041875 4.366875 8.02125 5.17125 8 6 C6.35 6.33 4.7 6.66 3 7 C3 8.32 3 9.64 3 11 C2.01 11 1.02 11 0 11 C0 7.37 0 3.74 0 0 Z " fill="#F6EFC7" transform="translate(92,54)"/>
<path d="M0 0 C0.99 0.33 1.98 0.66 3 1 C3 7.6 3 14.2 3 21 C2.01 20.67 1.02 20.34 0 20 C0 13.4 0 6.8 0 0 Z " fill="#E5CF69" transform="translate(96,21)"/>
<path d="M0 0 C1.98 0 3.96 0 6 0 C6.84454356 3.37817425 7.10844919 5.67465243 6 9 C5.34 9 4.68 9 4 9 C3.67 8.34 3.34 7.68 3 7 C2.67 7.66 2.34 8.32 2 9 C1.34 9 0.68 9 0 9 C0 6.03 0 3.06 0 0 Z " fill="#F4ECC4" transform="translate(84,52)"/>
<path d="M0 0 C0.66 0.33 1.32 0.66 2 1 C1.67 4.3 1.34 7.6 1 11 C0.67 11 0.34 11 0 11 C0 9.35 0 7.7 0 6 C-1.65 6 -3.3 6 -5 6 C-4.42547254 9.93075644 -4.42547254 9.93075644 -2 13 C-3.65 13 -5.3 13 -7 13 C-7 9.7 -7 6.4 -7 3 C-4.69 3 -2.38 3 0 3 C0 2.01 0 1.02 0 0 Z " fill="#FEFDF3" transform="translate(69,31)"/>
<path d="M0 0 C6.15234375 -0.09765625 6.15234375 -0.09765625 8 0 C9 1 9 1 9.0625 4.0625 C9.041875 5.031875 9.02125 6.00125 9 7 C8.67 7 8.34 7 8 7 C8 5.35 8 3.7 8 2 C7.34 2 6.68 2 6 2 C6 2.66 6 3.32 6 4 C5.01 4 4.02 4 3 4 C3 6.97 3 9.94 3 13 C2.67 13 2.34 13 2 13 C2.01740234 11.93458984 2.01740234 11.93458984 2.03515625 10.84765625 C2.04417969 9.92855469 2.05320312 9.00945313 2.0625 8.0625 C2.07410156 7.14597656 2.08570312 6.22945312 2.09765625 5.28515625 C2.25949049 3.03406673 2.25949049 3.03406673 1 2 C0.67 2.99 0.34 3.98 0 5 C0 3.35 0 1.7 0 0 Z " fill="#F6F0CF" transform="translate(68,29)"/>
<path d="M0 0 C1.68762851 1.6454378 3.3540349 3.31288577 5 5 C5 5.33 5 5.66 5 6 C-4.57 6 -14.14 6 -24 6 C-24 5.67 -24 5.34 -24 5 C-15.75 5 -7.5 5 1 5 C0.67 3.35 0.34 1.7 0 0 Z " fill="#EFDB7F" transform="translate(76,66)"/>
<path d="M0 0 C1.65 0 3.3 0 5 0 C5 1.98 5 3.96 5 6 C3.02 6.33 1.04 6.66 -1 7 C-1.125 2.25 -1.125 2.25 0 0 Z " fill="#F3ECC1" transform="translate(78,36)"/>
<path d="M0 0 C0.33 0 0.66 0 1 0 C1 2.31 1 4.62 1 7 C-1.31 7 -3.62 7 -6 7 C-5.02433888 5.83040013 -4.044375 4.66438823 -3.0625 3.5 C-2.51722656 2.8503125 -1.97195312 2.200625 -1.41015625 1.53125 C-0.71212891 0.77328125 -0.71212891 0.77328125 0 0 Z " fill="#DFCA67" transform="translate(60,20)"/>
<path d="M0 0 C0.99 0 1.98 0 3 0 C3 2.97 3 5.94 3 9 C2.01 9 1.02 9 0 9 C0 6.03 0 3.06 0 0 Z " fill="#E1CC67" transform="translate(71,33)"/>
<path d="M0 0 C0.66 0 1.32 0 2 0 C2 1.32 2 2.64 2 4 C3.32 4.66 4.64 5.32 6 6 C6 6.66 6 7.32 6 8 C5.34 8 4.68 8 4 8 C3.67 7.34 3.34 6.68 3 6 C2.67 6.66 2.34 7.32 2 8 C1.34 8 0.68 8 0 8 C0 5.36 0 2.72 0 0 Z " fill="#FCF9DF" transform="translate(84,53)"/>
<path d="M0 0 C0.66 0.99 1.32 1.98 2 3 C1.34 4.32 0.68 5.64 0 7 C-0.33 6.67 -0.66 6.34 -1 6 C-3.01594582 5.76572222 -5.038474 5.58663876 -7.0625 5.4375 C-8.16722656 5.35371094 -9.27195312 5.26992188 -10.41015625 5.18359375 C-11.26480469 5.12300781 -12.11945312 5.06242187 -13 5 C-13 4.67 -13 4.34 -13 4 C-7.06 3.505 -7.06 3.505 -1 3 C-0.67 2.01 -0.34 1.02 0 0 Z " fill="#FEFEF2" transform="translate(75,53)"/>
<path d="M0 0 C1.32 0 2.64 0 4 0 C4 1.65 4 3.3 4 5 C2.68 5 1.36 5 0 5 C0 3.35 0 1.7 0 0 Z " fill="#E7D582" transform="translate(64,37)"/>
<path d="M0 0 C1.66519519 0.34060811 3.33157466 0.67558396 5 1 C5 1.33 5 1.66 5 2 C3.5629191 2.05422947 2.12524538 2.09289723 0.6875 2.125 C-0.11300781 2.14820313 -0.91351563 2.17140625 -1.73828125 2.1953125 C-4 2 -4 2 -7 0 C-3.7407369 -1.08642103 -3.1336898 -0.92167347 0 0 Z " fill="#F6F2D4" transform="translate(90,42)"/>
</svg>
