<?xml version="1.0" encoding="UTF-8"?>
<svg version="1.1" xmlns="http://www.w3.org/2000/svg" width="154" height="82">
<path d="M0 0 C50.82 0 101.64 0 154 0 C154 27.06 154 54.12 154 82 C103.18 82 52.36 82 0 82 C0 54.94 0 27.88 0 0 Z " fill="#FEFEFE" transform="translate(0,0)"/>
<path d="M0 0 C3.63283002 1.39106893 6.23251008 3.70572139 9.08984375 6.265625 C10.19254572 7.22935276 11.29540952 8.19289539 12.3984375 9.15625 C12.87982178 9.58454102 13.36120605 10.01283203 13.85717773 10.45410156 C15.81120135 12.21117327 15.81120135 12.21117327 18.8190918 14.21264648 C21.65234375 17.015625 21.65234375 17.015625 22.33349609 20.61254883 C22.33255555 21.98295189 22.29919302 23.35360724 22.23828125 24.72265625 C22.22979156 25.44805099 22.22130188 26.17344574 22.21255493 26.92082214 C22.17911776 29.22480457 22.10387489 31.52521152 22.02734375 33.828125 C21.9972308 35.39513152 21.9698573 36.96219324 21.9453125 38.52929688 C21.88446695 42.36053858 21.76709795 46.18410993 21.65234375 50.015625 C16.37234375 50.015625 11.09234375 50.015625 5.65234375 50.015625 C5.65234375 43.415625 5.65234375 36.815625 5.65234375 30.015625 C1.36234375 30.015625 -2.92765625 30.015625 -7.34765625 30.015625 C-7.34765625 36.285625 -7.34765625 42.555625 -7.34765625 49.015625 C-12.29765625 49.015625 -17.24765625 49.015625 -22.34765625 49.015625 C-24.72621528 20.42336329 -24.72621528 20.42336329 -20.84179688 13.22509766 C-17.26557818 9.13759998 -12.9934926 6.36720612 -8.15820312 3.95410156 C-6.18201841 3.01357486 -6.18201841 3.01357486 -4.14453125 1.1640625 C-2.34765625 0.015625 -2.34765625 0.015625 0 0 Z " fill="#364352" transform="translate(77.34765625,21.984375)"/>
<path d="M0 0 C4.0371284 1.71830649 7.08173648 4.42412722 10.40234375 7.25390625 C11.82334556 8.44375194 13.24521544 9.63256172 14.66796875 10.8203125 C15.35052734 11.39281738 16.03308594 11.96532227 16.73632812 12.55517578 C19.79881063 15.07056342 23.00553544 17.38478921 26.24609375 19.6640625 C27.65234375 21.12890625 27.65234375 21.12890625 27.65234375 25.12890625 C23.08866594 23.6668391 19.93302903 21.06272912 16.40234375 17.94140625 C15.25200482 16.95360812 14.10096025 15.96663116 12.94921875 14.98046875 C10.95011909 13.25627405 8.96227127 11.52156175 6.98046875 9.77734375 C6.2121875 9.13023438 5.44390625 8.483125 4.65234375 7.81640625 C3.99234375 7.24277344 3.33234375 6.66914063 2.65234375 6.078125 C0.65679521 4.88588516 0.65679521 4.88588516 -1.671875 5.6015625 C-5.22924143 7.63211764 -8.11585999 10.15543166 -11.16015625 12.87890625 C-12.40092234 13.96386727 -13.64310087 15.04721523 -14.88671875 16.12890625 C-15.77858887 16.90621094 -15.77858887 16.90621094 -16.68847656 17.69921875 C-25.310771 25.12890625 -25.310771 25.12890625 -29.34765625 25.12890625 C-28.80678307 21.34279398 -27.23043293 19.57489858 -24.34765625 17.12890625 C-23.68765625 17.12890625 -23.02765625 17.12890625 -22.34765625 17.12890625 C-22.34765625 12.83890625 -22.34765625 8.54890625 -22.34765625 4.12890625 C-19.37765625 4.12890625 -16.40765625 4.12890625 -13.34765625 4.12890625 C-13.01765625 5.44890625 -12.68765625 6.76890625 -12.34765625 8.12890625 C-11.68378906 7.53980469 -11.01992187 6.95070313 -10.3359375 6.34375 C-9.45292969 5.59222656 -8.56992188 4.84070313 -7.66015625 4.06640625 C-6.79003906 3.31230469 -5.91992188 2.55820312 -5.0234375 1.78125 C-2.34765625 0.12890625 -2.34765625 0.12890625 0 0 Z " fill="#3F4B58" transform="translate(77.34765625,13.87109375)"/>
<path d="M0 0 C3.23913024 1.46497027 5.7621289 3.30375634 8.5 5.5625 C14.21334271 10.20992056 20.08709479 14.61103943 26 19 C24.02 19.99 24.02 19.99 22 21 C20.69675781 19.89591797 20.69675781 19.89591797 19.3671875 18.76953125 C18.20313536 17.78384194 17.03907227 16.79816554 15.875 15.8125 C15.30523437 15.32974609 14.73546875 14.84699219 14.1484375 14.34960938 C13.00073694 13.37797652 11.8493414 12.41069178 10.69433594 11.44775391 C9.57302554 10.48963133 8.47618598 9.50203946 7.40722656 8.48583984 C5.72958332 6.87428602 5.72958332 6.87428602 3 5 C-0.82840061 5.29667706 -3.01949722 6.45935863 -5.91796875 8.90625 C-6.61470703 9.48503906 -7.31144531 10.06382813 -8.02929688 10.66015625 C-8.74150391 11.26730469 -9.45371094 11.87445313 -10.1875 12.5 C-11.61729256 13.69934514 -13.04822808 14.89732942 -14.48046875 16.09375 C-15.10848389 16.62677734 -15.73649902 17.15980469 -16.38354492 17.70898438 C-18 19 -18 19 -20 20 C-20.33 30.89 -20.66 41.78 -21 53 C-16.05 53 -11.1 53 -6 53 C-6 53.33 -6 53.66 -6 54 C-11.28 54 -16.56 54 -22 54 C-22 42.78 -22 31.56 -22 20 C-22.66 19.67 -23.32 19.34 -24 19 C-16.04783346 12.60528543 -8.03100649 6.29519817 0 0 Z " fill="#E2E6EA" transform="translate(76,18)"/>
<path d="M0 0 C0.66 0.33 1.32 0.66 2 1 C0.49213301 5.28984608 -2.24296669 6.44571667 -6.046875 8.68359375 C-9.81974142 11.23152279 -11.80386833 13.30366138 -13.07617188 17.82080078 C-13.54569617 22.23860335 -13.41008674 26.63074976 -13.25 31.0625 C-13.23800514 32.61129536 -13.23144934 34.16014288 -13.23046875 35.70898438 C-13.22643315 39.48025334 -13.11110984 43.22440209 -13 47 C-8.05 47 -3.1 47 2 47 C2 47.33 2 47.66 2 48 C-3.28 48 -8.56 48 -14 48 C-14 36.78 -14 25.56 -14 14 C-14.66 13.67 -15.32 13.34 -16 13 C-15.34773438 12.48050781 -14.69546875 11.96101563 -14.0234375 11.42578125 C-9.30839912 7.66348662 -4.61407865 3.88553991 0 0 Z " fill="#B9BEC4" transform="translate(68,24)"/>
<path d="M0 0 C1.29315061 0.95632999 2.58446853 1.91513851 3.875 2.875 C4.59429687 3.40867188 5.31359375 3.94234375 6.0546875 4.4921875 C8 6 8 6 10 8 C8.375 8.8125 8.375 8.8125 6 9 C2.75 6.8125 2.75 6.8125 0 4 C0 2.68 0 1.36 0 0 Z " fill="#DBE0E3" transform="translate(92,30)"/>
<path d="M0 0 C0.99 0.33 1.98 0.66 3 1 C-0.465 3.97 -0.465 3.97 -4 7 C-4.99 6.34 -5.98 5.68 -7 5 C-5.90554162 4.13342884 -4.79902219 3.28207276 -3.6875 2.4375 C-3.07261719 1.96183594 -2.45773438 1.48617187 -1.82421875 0.99609375 C-1.22222656 0.66738281 -0.62023438 0.33867188 0 0 Z " fill="#E5E9EC" transform="translate(59,32)"/>
</svg>
