<?xml version="1.0" encoding="UTF-8"?>
<svg version="1.1" xmlns="http://www.w3.org/2000/svg" width="154" height="82">
<path d="M0 0 C50.82 0 101.64 0 154 0 C154 27.06 154 54.12 154 82 C103.18 82 52.36 82 0 82 C0 54.94 0 27.88 0 0 Z " fill="#FEFDFC" transform="translate(0,0)"/>
<path d="M0 0 C0.89110474 -0.00241196 1.78220947 -0.00482391 2.70031738 -0.00730896 C4.57971661 -0.00633178 6.45914507 0.00703114 8.33837891 0.03198242 C11.2096568 0.06629758 14.07785638 0.05263414 16.94921875 0.03320312 C18.77865889 0.04010187 20.60809111 0.04977452 22.4375 0.0625 C23.72049988 0.0550602 23.72049988 0.0550602 25.02941895 0.04747009 C29.10987071 0.12780903 31.21193091 0.30804384 34.73632812 2.53930664 C38.24979638 6.24272718 37.93402989 9.56757108 37.96875 14.44140625 C37.989375 15.15361328 38.01 15.86582031 38.03125 16.59960938 C38.0648586 21.14097168 37.54102941 24.03255506 34.71875 27.62890625 C31.49271455 29.24192398 27.97164962 28.74944224 24.4296875 28.7265625 C23.20205185 28.72444008 23.20205185 28.72444008 21.94961548 28.72227478 C19.33095675 28.71666915 16.71238296 28.70411573 14.09375 28.69140625 C12.32031373 28.68639197 10.54687613 28.68182894 8.7734375 28.67773438 C4.42184218 28.66669789 0.0703105 28.6494295 -4.28125 28.62890625 C-3.62125 29.61890625 -2.96125 30.60890625 -2.28125 31.62890625 C-1.58277669 37.6823416 -2.94537338 40.76805746 -6.28125 45.62890625 C-9.28125 47.62890625 -9.28125 47.62890625 -11.46875 47.25390625 C-12.066875 47.04765625 -12.665 46.84140625 -13.28125 46.62890625 C-13.28125 45.96890625 -13.28125 45.30890625 -13.28125 44.62890625 C-16.25125 43.63890625 -19.22125 42.64890625 -22.28125 41.62890625 C-21.62125 37.00890625 -20.96125 32.38890625 -20.28125 27.62890625 C-16.32125 27.13390625 -16.32125 27.13390625 -12.28125 26.62890625 C-13.27125 25.30890625 -14.26125 23.98890625 -15.28125 22.62890625 C-15.94125 22.95890625 -16.60125 23.28890625 -17.28125 23.62890625 C-20.03125 24.12890625 -20.03125 24.12890625 -23.28125 23.62890625 C-25.91592597 21.66020159 -27.72601891 19.5252424 -29.28125 16.62890625 C-29.49975798 12.33158257 -29.0040569 10.50982716 -26.28125 7.19140625 C-22.69572715 5.32394643 -20.49695915 5.47090138 -16.5625 5.9765625 C-13.99526265 5.84368522 -13.99526265 5.84368522 -12.21875 3.14648438 C-8.15798253 -0.33378774 -5.18463006 -0.08036506 0 0 Z " fill="#AE3E3B" transform="translate(108.28125,6.37109375)"/>
<path d="M0 0 C1.23234375 -0.00515625 2.4646875 -0.0103125 3.734375 -0.015625 C5.66023438 0.00757813 5.66023438 0.00757813 7.625 0.03125 C8.90890625 0.01578125 10.1928125 0.0003125 11.515625 -0.015625 C12.74796875 -0.01046875 13.9803125 -0.0053125 15.25 0 C16.93996094 0.00676758 16.93996094 0.00676758 18.6640625 0.01367188 C22.25597676 0.64154607 23.44410644 1.65738667 25.625 4.53125 C26.35819351 9.34937876 25.12405297 12.42566298 22.625 16.53125 C19.58918566 20.05671181 16.83711266 22.26300957 12.14453125 22.83203125 C5.32877287 22.8615367 -1.68867382 22.79455514 -7.04296875 18.0546875 C-9.53901269 14.99231426 -10.70139294 12.2985432 -10.9375 8.34375 C-9.92500049 1.48125334 -6.59102748 0.02639427 0 0 Z " fill="#A39948" transform="translate(67.375,51.46875)"/>
<path d="M0 0 C2.51475368 3.77213052 2.44796416 5.52035842 2 10 C0.39354173 13.933053 -1.40838413 16.60558942 -5 19 C-7.1875 18.625 -7.1875 18.625 -9 18 C-9 17.34 -9 16.68 -9 16 C-11.97 15.01 -14.94 14.02 -18 13 C-17.34 8.38 -16.68 3.76 -16 -1 C-9.95630146 -1.92979978 -5.70284692 -2.32769262 0 0 Z " fill="#A49A4B" transform="translate(104,35)"/>
<path d="M0 0 C1.26328125 0.02707031 2.5265625 0.05414063 3.828125 0.08203125 C4.79234375 0.11683594 5.7565625 0.15164062 6.75 0.1875 C6.81058594 0.86296875 6.87117188 1.5384375 6.93359375 2.234375 C7.05927734 3.57242188 7.05927734 3.57242188 7.1875 4.9375 C7.30931641 6.26007812 7.30931641 6.26007812 7.43359375 7.609375 C7.71238465 9.88100452 8.13790577 11.98601823 8.75 14.1875 C7.1103125 14.55875 7.1103125 14.55875 5.4375 14.9375 C1.69091591 16.20752851 0.64404734 16.84506352 -1.25 20.1875 C-4.78508103 19.89290991 -6.01203444 19.43868587 -8.5 16.8125 C-10.65003472 13.58744793 -11.42529178 11.00044427 -11.5625 7.1875 C-11.59988281 6.506875 -11.63726562 5.82625 -11.67578125 5.125 C-11.25 3.1875 -11.25 3.1875 -9.68359375 1.44921875 C-6.34616988 -0.28109892 -3.73601636 -0.10377823 0 0 Z " fill="#A49B4C" transform="translate(55.25,33.8125)"/>
<path d="M0 0 C3.2664564 0.69807334 4.83326213 1.8495226 6.9375 4.4140625 C7.77341424 8.92799939 7.24946246 10.87787703 4.9375 14.8515625 C1.38848039 17.88301675 1.38848039 17.88301675 -2.0625 18.1640625 C-5.61076607 17.88181406 -6.17983807 17.31139169 -9.0625 14.7890625 C-11.24381104 11.10810012 -11.94963951 9.58361818 -11.0625 5.4140625 C-7.94162794 0.92780891 -5.28970645 -0.38069857 0 0 Z " fill="#A39947" transform="translate(77.0625,29.5859375)"/>
<path d="M0 0 C2.4680558 0.81344161 3.5347621 1.60960149 5.0859375 3.6875 C5.59683742 8.21261354 5.612194 10.58922556 3.6484375 14.6875 C0.39213576 17.2290038 -1.72874157 17.41522961 -5.78515625 17.16796875 C-7.9140625 16.6875 -7.9140625 16.6875 -10.4765625 14.625 C-12.29187927 10.91543965 -12.57028487 8.77066143 -11.9140625 4.6875 C-8.54233833 -0.5332342 -5.7212288 -0.78105513 0 0 Z " fill="#A29949" transform="translate(64.9140625,12.3125)"/>
<path d="M0 0 C-0.0867572 2.62664903 -0.19357981 5.24978082 -0.3125 7.875 C-0.34633789 8.99455078 -0.34633789 8.99455078 -0.38085938 10.13671875 C-0.47811945 12.099604 -0.73042294 14.05328322 -1 16 C-4.56038041 18.37358694 -5.80896839 18.73959381 -10 18 C-12.63032139 16.02433638 -14.44406153 13.89765352 -16 11 C-16.21678159 6.73662876 -15.71045207 4.89379454 -13.0625 1.5625 C-8.70740598 -0.65948675 -4.79719226 -0.33533771 0 0 Z " fill="#A59B4E" transform="translate(95,12)"/>
<path d="M0 0 C0.66 0 1.32 0 2 0 C2.33 1.65 2.66 3.3 3 5 C3.66 3.35 4.32 1.7 5 0 C5.99 0.33 6.98 0.66 8 1 C8.6875 3.0625 8.6875 3.0625 9 5 C9.66 3.35 10.32 1.7 11 0 C11.66 0 12.32 0 13 0 C12.34 3.3 11.68 6.6 11 10 C10.01 10 9.02 10 8 10 C7.34 8.68 6.68 7.36 6 6 C5.34 7.32 4.68 8.64 4 10 C3.34 10 2.68 10 2 10 C1.34 6.7 0.68 3.4 0 0 Z " fill="#EAC3C4" transform="translate(123,15)"/>
<path d="M0 0 C3.76687864 1.88343932 4.79421646 2.69132469 7 6 C7.33 4.02 7.66 2.04 8 0 C8.33 0 8.66 0 9 0 C9 3.3 9 6.6 9 10 C5.26360784 8.75453595 4.81243487 7.36595047 3 4 C2.67 5.98 2.34 7.96 2 10 C1.34 10 0.68 10 0 10 C0 6.7 0 3.4 0 0 Z " fill="#F2CECD" transform="translate(103,15)"/>
<path d="M0 0 C2.31 0 4.62 0 7 0 C7 0.33 7 0.66 7 1 C5.35 1 3.7 1 2 1 C2 1.99 2 2.98 2 4 C3.65 4 5.3 4 7 4 C7 4.66 7 5.32 7 6 C5.35 6 3.7 6 2 6 C2 6.99 2 7.98 2 9 C3.98 9 5.96 9 8 9 C8 9.33 8 9.66 8 10 C5.36 10 2.72 10 0 10 C0 6.7 0 3.4 0 0 Z " fill="#EEBABC" transform="translate(114,15)"/>
<path d="M0 0 C2.97 0 5.94 0 9 0 C9 1.98 9 3.96 9 6 C8.01 6.33 7.02 6.66 6 7 C6 6.34 6 5.68 6 5 C4.35 5 2.7 5 1 5 C0.67 3.35 0.34 1.7 0 0 Z " fill="#AF4D4C" transform="translate(115,14)"/>
<path d="M0 0 C0.66 0 1.32 0 2 0 C1.67 0.99 1.34 1.98 1 3 C0.34 3 -0.32 3 -1 3 C-1 5.97 -1 8.94 -1 12 C-3 10 -3 10 -3.3125 7.125 C-2.97238945 3.72389447 -2.39158579 2.39158579 0 0 Z " fill="#B1AB77" transform="translate(69,31)"/>
<path d="M0 0 C0.66 0 1.32 0 2 0 C2.33 1.65 2.66 3.3 3 5 C3.66 5 4.32 5 5 5 C4.67 6.65 4.34 8.3 4 10 C3.34 10 2.68 10 2 10 C1.34 6.7 0.68 3.4 0 0 Z " fill="#F2CDCE" transform="translate(123,15)"/>
</svg>
