<?xml version="1.0" encoding="UTF-8"?>
<svg version="1.1" xmlns="http://www.w3.org/2000/svg" width="154" height="82">
<path d="M0 0 C50.82 0 101.64 0 154 0 C154 27.06 154 54.12 154 82 C103.18 82 52.36 82 0 82 C0 54.94 0 27.88 0 0 Z " fill="#FEFEFE" transform="translate(0,0)"/>
<path d="M0 0 C6.93 0 13.86 0 21 0 C21 2.31 21 4.62 21 7 C25.29 7 29.58 7 34 7 C34 4.69 34 2.38 34 0 C40.93 0 47.86 0 55 0 C55 6.27 55 12.54 55 19 C51.27290306 20.86354847 50.09728251 21.25307774 46.18725586 21.2746582 C45.23624496 21.28419022 44.28523407 21.29372223 43.30540466 21.30354309 C42.28551956 21.30263168 41.26563446 21.30172028 40.21484375 21.30078125 C39.1622084 21.30506638 38.10957306 21.3093515 37.02503967 21.31376648 C34.8017753 21.31950533 32.57849215 21.32001332 30.35522461 21.31567383 C26.94677936 21.31250862 23.53919765 21.33599738 20.13085938 21.36132812 C17.97135526 21.36360056 15.81184881 21.36430487 13.65234375 21.36328125 C12.11947975 21.37709587 12.11947975 21.37709587 10.5556488 21.39118958 C9.1338607 21.38184639 9.1338607 21.38184639 7.68334961 21.37231445 C6.43236732 21.37325859 6.43236732 21.37325859 5.15611267 21.3742218 C2.50466113 20.9140274 1.61967661 20.11103511 0 18 C-0.34057617 16.00708008 -0.34057617 16.00708008 -0.29296875 13.76953125 C-0.28547607 13.04612549 -0.2779834 12.32271973 -0.27026367 11.57739258 C-0.24295166 10.66497803 -0.21563965 9.75256348 -0.1875 8.8125 C-0.125625 5.904375 -0.06375 2.99625 0 0 Z " fill="#D7BA57" transform="translate(45,50)"/>
<path d="M0 0 C1.45889648 -0.00386719 1.45889648 -0.00386719 2.94726562 -0.0078125 C4.47577148 0.00378906 4.47577148 0.00378906 6.03515625 0.015625 C7.05029297 0.00789063 8.06542969 0.00015625 9.11132812 -0.0078125 C10.08521484 -0.00523438 11.05910156 -0.00265625 12.0625 0 C12.95573975 0.00225586 13.84897949 0.00451172 14.76928711 0.00683594 C17.09765625 0.265625 17.09765625 0.265625 20.09765625 2.265625 C20.50609548 4.97766152 20.23102492 7.5093392 20.09765625 10.265625 C21.25394531 10.23082031 21.25394531 10.23082031 22.43359375 10.1953125 C23.43648437 10.17726563 24.439375 10.15921875 25.47265625 10.140625 C26.47039062 10.11742187 27.468125 10.09421875 28.49609375 10.0703125 C31.09765625 10.265625 31.09765625 10.265625 33.09765625 12.265625 C33.09765625 16.225625 33.09765625 20.185625 33.09765625 24.265625 C15.27765625 24.265625 -2.54234375 24.265625 -20.90234375 24.265625 C-20.90234375 20.635625 -20.90234375 17.005625 -20.90234375 13.265625 C-17.90234375 10.265625 -17.90234375 10.265625 -15.203125 9.97265625 C-14.21699219 10.00746094 -13.23085938 10.04226562 -12.21484375 10.078125 C-11.22097656 10.10519531 -10.22710937 10.13226563 -9.203125 10.16015625 C-8.06423828 10.21236328 -8.06423828 10.21236328 -6.90234375 10.265625 C-6.94359375 8.986875 -6.98484375 7.708125 -7.02734375 6.390625 C-7.09765625 4.2109375 -7.09765625 4.2109375 -6.90234375 2.265625 C-4.3779468 -0.25877195 -3.49177556 0.00882956 0 0 Z " fill="#D6B955" transform="translate(65.90234375,22.734375)"/>
<path d="M0 0 C4.29 0 8.58 0 13 0 C13 0.99 13 1.98 13 3 C8.71 3 4.42 3 0 3 C0 2.01 0 1.02 0 0 Z " fill="#FCFBEE" transform="translate(66,30)"/>
</svg>
