<?xml version="1.0" encoding="UTF-8"?>
<svg version="1.1" xmlns="http://www.w3.org/2000/svg" width="154" height="82">
<path d="M0 0 C50.82 0 101.64 0 154 0 C154 27.06 154 54.12 154 82 C103.18 82 52.36 82 0 82 C0 54.94 0 27.88 0 0 Z " fill="#FEFDFD" transform="translate(0,0)"/>
<path d="M0 0 C3.40508108 2.73395514 6.24991039 5.48530778 7.9453125 9.57421875 C7.9453125 11.88421875 7.9453125 14.19421875 7.9453125 16.57421875 C-10.5346875 16.57421875 -29.0146875 16.57421875 -48.0546875 16.57421875 C-48.0546875 9.53423601 -46.67973679 6.67269828 -42.0546875 1.57421875 C-29.88452451 -7.61080992 -12.78749251 -8.87345013 0 0 Z " fill="#B85A29" transform="translate(98.0546875,17.42578125)"/>
<path d="M0 0 C17.82 0 35.64 0 54 0 C55 5 55 5 53.25 8.1875 C49.57539593 12.78075509 49.57539593 12.78075509 46.07839966 13.26742554 C45.35401703 13.27504913 44.6296344 13.28267273 43.88330078 13.29052734 C42.64654099 13.3096669 42.64654099 13.3096669 41.38479614 13.32919312 C40.49726654 13.33141876 39.60973694 13.33364441 38.6953125 13.3359375 C37.32111649 13.3459227 37.32111649 13.3459227 35.91915894 13.35610962 C33.98079435 13.36623545 32.04239491 13.37092666 30.10400391 13.37060547 C27.14296767 13.37497349 24.18342821 13.41127909 21.22265625 13.44921875 C19.33854676 13.455088 17.45443019 13.45905667 15.5703125 13.4609375 C14.68683136 13.47530853 13.80335022 13.48967957 12.89309692 13.50448608 C8.73776472 13.47371032 6.57337072 13.36313169 2.98779297 11.09228516 C1.03904548 9.04109798 -0.18101068 7.70266477 -1 5 C-0.67 3.35 -0.34 1.7 0 0 Z " fill="#B95B2B" transform="translate(51,54)"/>
<path d="M0 0 C15.18 0 30.36 0 46 0 C46.495 1.485 46.495 1.485 47 3 C48.32 3 49.64 3 51 3 C50.67 4.32 50.34 5.64 50 7 C49.34 7 48.68 7 48 7 C47.855625 7.61875 47.71125 8.2375 47.5625 8.875 C47 11 47 11 46 13 C30.82 13 15.64 13 0 13 C-0.33 11.02 -0.66 9.04 -1 7 C-1.99 6.67 -2.98 6.34 -4 6 C-4 5.01 -4 4.02 -4 3 C-3.01 3 -2.02 3 -1 3 C-0.67 2.01 -0.34 1.02 0 0 Z " fill="#BB5A28" transform="translate(55,38)"/>
<path d="M0 0 C0.99 0.66 1.98 1.32 3 2 C7.07490752 2.33957563 8.53001271 2.31332486 12 0 C16.07490752 -0.33957563 17.53001271 -0.31332486 21 2 C23.29714187 2.02639829 23.29714187 2.02639829 25.6875 1.625 C26.89986328 1.45871094 26.89986328 1.45871094 28.13671875 1.2890625 C28.75160156 1.19367187 29.36648437 1.09828125 30 1 C29.125 4.875 29.125 4.875 28 6 C26.50261876 6.0979057 25.00057108 6.12974864 23.5 6.125 C22.6853125 6.12757812 21.870625 6.13015625 21.03125 6.1328125 C19 6 19 6 18 5 C13.85723125 4.75266863 13.85723125 4.75266863 10 6 C8.125 6.1328125 8.125 6.1328125 6 6.125 C4.948125 6.12886719 4.948125 6.12886719 3.875 6.1328125 C2 6 2 6 0 5 C-3.04173894 4.83329727 -3.04173894 4.83329727 -6 5 C-6.33 5.33 -6.66 5.66 -7 6 C-8.99609375 6.16796875 -8.99609375 6.16796875 -11.4375 6.1875 C-12.64212891 6.20876953 -12.64212891 6.20876953 -13.87109375 6.23046875 C-16 6 -16 6 -18 4 C-18 3.01 -18 2.02 -18 1 C-17.07767578 1.14308594 -17.07767578 1.14308594 -16.13671875 1.2890625 C-15.32847656 1.39992187 -14.52023438 1.51078125 -13.6875 1.625 C-12.88699219 1.74101563 -12.08648437 1.85703125 -11.26171875 1.9765625 C-7.11364575 2.01954771 -4.66164064 -0.38847005 0 0 Z " fill="#F8E9DE" transform="translate(72,41)"/>
<path d="M0 0 C14.85 0 29.7 0 45 0 C45 0.66 45 1.32 45 2 C46.32 2.33 47.64 2.66 49 3 C31.18 3 13.36 3 -5 3 C-5 2.67 -5 2.34 -5 2 C-3.35 2 -1.7 2 0 2 C0 1.34 0 0.68 0 0 Z " fill="#FAF0E6" transform="translate(56,51)"/>
<path d="M0 0 C0.66 0.33 1.32 0.66 2 1 C3.91500303 1.15898854 3.91500303 1.15898854 6 1.125 C6.70125 1.12757812 7.4025 1.13015625 8.125 1.1328125 C10.09153775 1.11377236 10.09153775 1.11377236 12 0 C16.05142119 -0.25860135 17.54337669 -0.30441554 21 2 C23.32387947 2.39387788 25.65793749 2.73486085 28 3 C27.67 3.66 27.34 4.32 27 5 C13.8 5 0.6 5 -13 5 C-5.83660131 -0.37254902 -5.83660131 -0.37254902 0 0 Z " fill="#B45B2C" transform="translate(72,45)"/>
<path d="M0 0 C15.18 0 30.36 0 46 0 C46 0.33 46 0.66 46 1 C36.1 1.33 26.2 1.66 16 2 C16 2.33 16 2.66 16 3 C5.34 6.9 5.34 6.9 0.5625 5.0625 C0.046875 4.711875 -0.46875 4.36125 -1 4 C-1 4.99 -1 5.98 -1 7 C-1.99 6.67 -2.98 6.34 -4 6 C-4 5.01 -4 4.02 -4 3 C-3.01 3 -2.02 3 -1 3 C-0.67 2.01 -0.34 1.02 0 0 Z " fill="#AD6138" transform="translate(55,38)"/>
<path d="M0 0 C0.495 0.99 0.495 0.99 1 2 C2.32 2 3.64 2 5 2 C4.67 3.32 4.34 4.64 4 6 C3.34 6 2.68 6 2 6 C1.855625 6.61875 1.71125 7.2375 1.5625 7.875 C1 10 1 10 0 12 C-15.18 12 -30.36 12 -46 12 C-46.33 10.02 -46.66 8.04 -47 6 C-42.545 6.99 -42.545 6.99 -38 8 C-38.66 8.66 -39.32 9.32 -40 10 C-27.46 10 -14.92 10 -2 10 C-3.98 9.67 -5.96 9.34 -8 9 C-8 8.67 -8 8.34 -8 8 C-4.535 7.505 -4.535 7.505 -1 7 C-0.31292445 4.50935112 0 2.62113708 0 0 Z " fill="#BE784E" transform="translate(101,39)"/>
<path d="M0 0 C0 0.33 0 0.66 0 1 C-1.65 1 -3.3 1 -5 1 C-5 1.66 -5 2.32 -5 3 C-3.02 3 -1.04 3 1 3 C0.67 3.66 0.34 4.32 0 5 C-0.969375 4.979375 -1.93875 4.95875 -2.9375 4.9375 C-5.87465895 4.64381501 -5.87465895 4.64381501 -7 6 C-8.99609375 6.16796875 -8.99609375 6.16796875 -11.4375 6.1875 C-12.64212891 6.20876953 -12.64212891 6.20876953 -13.87109375 6.23046875 C-16 6 -16 6 -18 4 C-18 3.01 -18 2.02 -18 1 C-17.07767578 1.14308594 -17.07767578 1.14308594 -16.13671875 1.2890625 C-15.32847656 1.39992187 -14.52023438 1.51078125 -13.6875 1.625 C-12.88699219 1.74101563 -12.08648437 1.85703125 -11.26171875 1.9765625 C-7.2390788 2.01824789 -4.52136065 -0.20094936 0 0 Z " fill="#EFD7C4" transform="translate(72,41)"/>
<path d="M0 0 C4.455 0.99 4.455 0.99 9 2 C8.34 2.66 7.68 3.32 7 4 C14.92 4.33 22.84 4.66 31 5 C31 5.33 31 5.66 31 6 C21.1 6 11.2 6 1 6 C0.67 4.02 0.34 2.04 0 0 Z " fill="#C47746" transform="translate(54,45)"/>
<path d="M0 0 C0.99 0.33 1.98 0.66 3 1 C1.95125002 3.62187494 1.35068687 4.79371361 -1.125 6.25 C-1.74375 6.4975 -2.3625 6.745 -3 7 C-3 3 -3 3 -1.5 1.25 C-1.005 0.8375 -0.51 0.425 0 0 Z " fill="#EFDAC7" transform="translate(74,21)"/>
<path d="M0 0 C2.97 0.99 5.94 1.98 9 3 C9 3.66 9 4.32 9 5 C5.625 5.125 5.625 5.125 2 5 C1.34 4.34 0.68 3.68 0 3 C0 2.01 0 1.02 0 0 Z " fill="#FAF0E7" transform="translate(54,42)"/>
<path d="M0 0 C-0.75 4.75 -0.75 4.75 -3 7 C-3.99 7 -4.98 7 -6 7 C-5.37162381 3.35541809 -4.14650034 0 0 0 Z " fill="#F1DCC9" transform="translate(66,21)"/>
<path d="M0 0 C0 1.32 0 2.64 0 4 C-0.66 4 -1.32 4 -2 4 C-2.33 4.99 -2.66 5.98 -3 7 C-3.99 7 -4.98 7 -6 7 C-5.37162381 3.35541809 -4.14650034 0 0 0 Z " fill="#EEDDCD" transform="translate(86,21)"/>
<path d="M0 0 C4.455 0.99 4.455 0.99 9 2 C7.3125 3.5625 7.3125 3.5625 5 5 C2.25 4.6875 2.25 4.6875 0 4 C0 2.68 0 1.36 0 0 Z " fill="#B56F49" transform="translate(54,45)"/>
<path d="M0 0 C0.33 0.66 0.66 1.32 1 2 C2.32 2 3.64 2 5 2 C4.67 3.32 4.34 4.64 4 6 C3.34 6 2.68 6 2 6 C1.67 6.99 1.34 7.98 1 9 C0.45627049 5.94152152 0 3.11227195 0 0 Z " fill="#D0936D" transform="translate(101,39)"/>
<path d="M0 0 C0.99 0 1.98 0 3 0 C2 2 1 4 0 6 C-0.99 6 -1.98 6 -3 6 C-2.42655063 3.13275314 -2.1385485 2.1385485 0 0 Z " fill="#F5EADB" transform="translate(92,22)"/>
<path d="M0 0 C0.66 0 1.32 0 2 0 C1.125 3.875 1.125 3.875 0 5 C-1.99958364 5.04080783 -4.00045254 5.04254356 -6 5 C-6 4.34 -6 3.68 -6 3 C-5.195625 2.87625 -4.39125 2.7525 -3.5625 2.625 C-2.716875 2.41875 -1.87125 2.2125 -1 2 C-0.67 1.34 -0.34 0.68 0 0 Z " fill="#FAF5EE" transform="translate(100,42)"/>
</svg>
