<?xml version="1.0" encoding="UTF-8"?>
<svg version="1.1" xmlns="http://www.w3.org/2000/svg" width="154" height="82">
<path d="M0 0 C50.82 0 101.64 0 154 0 C154 27.06 154 54.12 154 82 C103.18 82 52.36 82 0 82 C0 54.94 0 27.88 0 0 Z " fill="#FEFEFE" transform="translate(0,0)"/>
<path d="M0 0 C0 4.29 0 8.58 0 13 C0.99 13 1.98 13 3 13 C3 8.71 3 4.42 3 0 C5.31 0 7.62 0 10 0 C10 4.29 10 8.58 10 13 C10.99 13 11.98 13 13 13 C13 8.71 13 4.42 13 0 C20.22461626 -0.61053095 24.17602738 0.04381848 30.1875 4.1015625 C34.20842598 8.31313584 34.2385265 13.3122013 34.125 18.875 C34.10695312 20.02742188 34.08890625 21.17984375 34.0703125 22.3671875 C34.04710937 23.23601563 34.02390625 24.10484375 34 25 C31.69 25 29.38 25 27 25 C27 21.37 27 17.74 27 14 C26.01 14 25.02 14 24 14 C24.00523682 14.99443115 24.01047363 15.9888623 24.01586914 17.01342773 C24.03392041 20.69033921 24.04543246 24.36724675 24.05493164 28.04418945 C24.05997157 29.63794614 24.0668035 31.23169819 24.07543945 32.82543945 C24.08751999 35.11150253 24.09323155 37.39750467 24.09765625 39.68359375 C24.10281754 40.40026718 24.10797882 41.11694061 24.11329651 41.85533142 C24.11349263 43.57063672 24.06192007 45.28581266 24 47 C22.29507119 48.70492881 20.15465739 48.1280442 17.88098145 48.13894653 C16.81067688 48.13591019 16.81067688 48.13591019 15.71875 48.1328125 C14.99006714 48.13376923 14.26138428 48.13472595 13.51062012 48.13571167 C11.9672029 48.13639335 10.42378283 48.13453988 8.88037109 48.13037109 C6.510026 48.12502262 4.13987041 48.13031642 1.76953125 48.13671875 C0.27343708 48.13605797 -1.22265697 48.1347768 -2.71875 48.1328125 C-3.43228638 48.13483673 -4.14582275 48.13686096 -4.88098145 48.13894653 C-9.88504809 48.11495191 -9.88504809 48.11495191 -11 47 C-11.08843793 44.55169574 -11.11528752 42.13179401 -11.09765625 39.68359375 C-11.0962413 38.95253922 -11.09482635 38.22148468 -11.09336853 37.46827698 C-11.08775408 35.12464368 -11.07519922 32.78110461 -11.0625 30.4375 C-11.05748686 28.85221492 -11.05292363 27.26692834 -11.04882812 25.68164062 C-11.03777997 21.7877239 -11.02050572 17.89387795 -11 14 C-11.99 14 -12.98 14 -14 14 C-14 17.63 -14 21.26 -14 25 C-16.31 25 -18.62 25 -21 25 C-21.86022567 10.14677008 -21.86022567 10.14677008 -18.875 5.75 C-12.73783503 -0.12033171 -8.18807812 -0.33194911 0 0 Z " fill="#5E9ED0" transform="translate(70,22)"/>
<path d="M0 0 C3.60409919 -0.05800828 7.20807851 -0.09359869 10.8125 -0.125 C12.34874023 -0.15013672 12.34874023 -0.15013672 13.91601562 -0.17578125 C14.89892578 -0.18222656 15.88183594 -0.18867188 16.89453125 -0.1953125 C17.80050049 -0.20578613 18.70646973 -0.21625977 19.63989258 -0.22705078 C22 0 22 0 25 2 C25 2.66 25 3.32 25 4 C16.09 4 7.18 4 -2 4 C-1.34 2.68 -0.68 1.36 0 0 Z " fill="#73B0DF" transform="translate(65,15)"/>
<path d="M0 0 C6.6 0 13.2 0 20 0 C20 0.33 20 0.66 20 1 C14.06 1 8.12 1 2 1 C2 1.66 2 2.32 2 3 C1.01 3 0.02 3 -1 3 C-0.67 2.01 -0.34 1.02 0 0 Z " fill="#689EC9" transform="translate(65,15)"/>
</svg>
